<?xml version="1.0" encoding="utf-8" standalone="no"?>
<!DOCTYPE svg PUBLIC "-//W3C//DTD SVG 1.1//EN"
  "http://www.w3.org/Graphics/SVG/1.1/DTD/svg11.dtd">
<!-- Created with matplotlib (http://matplotlib.org/) -->
<svg height="576pt" version="1.1" viewBox="0 0 144 576" width="144pt" xmlns="http://www.w3.org/2000/svg" xmlns:xlink="http://www.w3.org/1999/xlink">
 <defs>
  <style type="text/css">
*{stroke-linecap:butt;stroke-linejoin:round;}
  </style>
 </defs>
 <g id="figure_1">
  <g id="patch_1">
   <path d="
M0 576
L144 576
L144 0
L0 0
z
" style="fill:#ffffff;"/>
  </g>
  <g id="axes_1">
   <g id="line2d_1">
    <path clip-path="url(#pd4186d8de6)" d="
M18 510.087
L19.24 509.004
L19.86 508.462
L20.48 508.15
L21.1 508.14
L21.72 508.397
L22.96 509.154
L23.58 509.329
L24.2 509.237
L26.06 508.196
L26.68 508.052
L27.3 508.203
L27.92 508.644
L29.78 510.423
L30.4 510.567
L31.02 510.291
L32.26 509.046
L32.88 508.7
L33.5 508.173
L34.12 507.917
L34.74 507.996
L35.98 508.736
L36.6 509.373
L37.22 509.797
L37.84 509.881
L38.46 509.595
L39.08 509.006
L39.7 508.626
L40.94 507.468
L42.18 507.068
L42.8 507.605
L45.28 510.612
L45.9 510.959
L46.52 511.028
L47.14 510.841
L47.76 510.445
L49 509.232
L52.1 505.573
L52.72 505.148
L53.34 505.018
L53.96 505.336
L54.58 506.064
L55.2 507.148
L57.06 510.843
L57.68 511.805
L58.3 512.298
L58.92 512.243
L59.54 511.667
L60.78 509.561
L61.4 508.498
L62.02 507.746
L62.64 507.462
L63.26 507.694
L63.88 508.358
L65.12 510.134
L65.74 510.716
L66.36 510.806
L66.98 510.323
L67.6 509.337
L68.84 506.762
L69.46 505.781
L70.08 505.355
L70.7 505.606
L71.32 506.488
L73.18 510.506
L73.8 511.288
L74.42 511.456
L75.04 511.019
L76.28 509.06
L76.9 508.074
L77.52 507.399
L78.14 507.147
L78.76 507.293
L80.62 508.449
L81.24 508.532
L81.86 508.197
L83.72 506.627
L84.34 506.59
L84.96 507.037
L85.58 507.969
L88.06 513.091
L88.68 513.56
L89.3 513.396
L89.92 512.618
L90.54 511.348
L92.4 506.747
L93.02 505.685
L93.64 505.098
L94.26 505.005
L94.88 505.288
L96.12 506.694
L97.36 508.03
L99.22 509.172
L102.32 509.856
L102.94 509.843
L104.18 509.476
L105.42 509.035
L106.04 509.029
L106.66 509.258
L107.28 509.66
L108.52 510.768
L109.14 511.071
L109.76 511.117
L110.38 510.572
L111 509.555
L112.86 505.322
L113.48 503.716
L114.1 503.079
L114.72 503.045
L115.34 502.87
L115.96 503.669
L116.58 504.715
L117.2 506.448
L117.82 507.814
L119.06 508.784
L119.68 508.663
L120.3 509.454
L120.92 510.033
L121.54 510.256
L121.54 510.256" style="fill:none;stroke:#000000;stroke-linecap:square;stroke-width:2;"/>
   </g>
  </g>
  <g id="axes_2">
   <g id="line2d_2">
    <path clip-path="url(#pba91d7df7c)" d="
M18 67.4534
L19.86 66.9666
L20.48 66.9253
L21.72 67.1685
L23.58 67.7756
L25.44 67.9758
L27.92 67.6595
L30.4 67.3986
L32.26 66.7543
L32.88 66.897
L34.12 67.0183
L37.22 67.9364
L37.84 67.8993
L38.46 67.6746
L40.94 66.1824
L42.18 65.7257
L42.8 65.9972
L43.42 66.499
L45.9 69.2536
L46.52 69.6669
L47.14 69.8348
L47.76 69.7357
L48.38 69.3754
L49 68.7834
L50.24 67.1149
L51.48 65.3039
L52.1 64.5769
L52.72 64.0982
L53.34 63.9481
L53.96 64.2199
L54.58 64.9061
L55.82 67.0812
L56.44 68.2604
L57.68 69.7699
L58.3 70.1135
L58.92 70.0115
L59.54 69.5049
L62.02 66.3993
L62.64 66.1749
L63.26 66.3327
L63.88 66.809
L65.12 68.1152
L65.74 68.5768
L66.36 68.7062
L66.98 68.4387
L67.6 67.8044
L69.46 65.2001
L70.08 64.7458
L70.7 64.7369
L71.32 65.1881
L71.94 66.0133
L73.8 68.9116
L74.42 69.4031
L75.04 69.4943
L75.66 69.2192
L76.9 68.0541
L78.14 67.0239
L78.76 66.772
L80.62 66.5929
L81.24 66.5831
L82.48 65.7103
L83.1 65.211
L83.72 64.9199
L84.34 64.889
L84.96 65.2411
L85.58 66.0126
L86.82 68.521
L88.06 71.1161
L88.68 71.9013
L89.3 72.121
L89.92 71.7127
L90.54 70.7187
L91.78 67.6166
L93.02 64.6022
L93.64 63.6818
L94.26 63.317
L94.88 63.4407
L95.5 64.0512
L98.6 68.4366
L99.22 68.6162
L99.84 68.5472
L101.08 68.0154
L102.32 67.4933
L103.56 67.2657
L104.8 67.2959
L106.04 67.524
L107.9 68.0096
L109.14 68.1376
L109.76 68.1643
L110.38 67.8364
L111.62 66.7051
L113.48 64.6772
L114.1 64.3209
L114.72 64.2078
L115.34 63.7272
L115.96 64.0024
L116.58 64.4819
L117.2 65.843
L117.82 66.7423
L119.06 67.3329
L119.68 67.2617
L120.92 67.5387
L121.54 67.548
L121.54 67.548" style="fill:none;stroke:#000000;stroke-linecap:square;stroke-width:2;"/>
   </g>
  </g>
  <g id="axes_3">
   <g id="line2d_3">
    <path clip-path="url(#pdffdb5c0e8)" d="
M18 94.4062
L18.62 94.1514
L19.24 93.4897
L21.1 90.9132
L21.72 90.3143
L22.96 89.6046
L24.82 88.9244
L25.44 88.4336
L26.06 88.7153
L26.68 89.3543
L27.3 90.3634
L28.54 93.0784
L29.16 93.8594
L29.78 95.098
L30.4 95.3546
L31.02 94.8625
L31.64 93.6643
L33.5 88.8425
L34.12 87.5947
L34.74 86.9891
L35.36 87.0975
L37.84 91.3625
L38.46 91.6777
L39.08 91.4184
L39.7 91.459
L41.56 88.732
L42.18 88.1354
L42.8 88.5554
L43.42 89.4054
L45.28 92.4538
L45.9 92.966
L46.52 93.068
L47.14 92.8005
L48.38 91.5981
L49.62 90.2566
L50.86 89.192
L52.1 88.3963
L52.72 88.1336
L53.34 88.0329
L54.58 88.6106
L55.2 89.2814
L56.44 91.373
L57.06 92.6308
L57.68 93.5989
L58.3 94.225
L58.92 94.4003
L59.54 94.092
L60.16 93.3513
L61.4 91.1106
L62.64 88.9944
L63.26 88.3211
L63.88 87.9696
L64.5 87.9072
L65.74 88.3174
L67.6 89.0743
L68.84 89.4949
L70.08 90.2002
L72.56 92.0118
L73.18 92.1602
L73.8 92.1053
L75.04 91.5758
L76.28 91.0871
L76.9 91.0499
L78.14 91.3898
L79.38 91.7373
L80 91.6592
L80.62 91.3271
L81.24 90.7691
L82.48 89.2155
L83.72 87.6416
L84.34 87.2915
L84.96 87.3106
L85.58 87.728
L86.2 88.5185
L87.44 90.8569
L88.68 93.1916
L89.3 93.9202
L89.92 94.1694
L90.54 93.881
L91.16 93.0864
L92.4 90.5545
L93.02 89.2538
L93.64 88.2361
L94.26 87.6674
L94.88 87.3269
L95.5 87.8601
L96.74 89.8062
L97.36 90.7745
L97.98 91.4866
L99.84 91.3749
L101.08 91.1061
L101.7 91.2019
L102.32 91.4989
L104.18 92.7951
L104.8 92.9744
L105.42 92.8967
L106.04 92.5698
L106.66 92.0586
L107.28 91.7233
L108.52 90.6907
L109.76 89.8211
L111.62 89.2763
L112.86 88.5936
L114.72 86.8797
L115.34 86.6832
L115.96 86.7491
L116.58 87.095
L117.2 88.6553
L117.82 88.856
L119.06 90.5016
L119.68 90.4139
L120.92 93.2865
L121.54 94.1266
L121.54 94.1266" style="fill:none;stroke:#000000;stroke-linecap:square;stroke-width:2;"/>
   </g>
  </g>
  <g id="axes_4">
   <g id="line2d_4">
    <path clip-path="url(#p0fe9a44d96)" d="
M18 115.717
L18.62 115.186
L19.86 113.341
L20.48 112.394
L21.1 111.662
L21.72 111.246
L22.34 111.167
L22.96 111.368
L24.82 112.557
L25.44 112.415
L26.68 113.345
L27.92 114.64
L28.54 115.451
L29.16 115.685
L29.78 116.794
L30.4 117.155
L31.02 117.102
L31.64 116.577
L32.26 115.771
L34.12 112.281
L34.74 111.591
L35.36 111.396
L35.98 111.637
L36.6 112.284
L37.84 113.813
L38.46 114.235
L39.08 114.24
L39.7 114.541
L40.94 112.92
L41.56 112.142
L42.18 111.624
L42.8 111.85
L43.42 112.497
L45.28 115.368
L45.9 115.989
L46.52 116.231
L47.14 116.091
L47.76 115.644
L50.86 112.537
L52.1 111.798
L53.34 111.413
L53.96 111.528
L54.58 111.764
L55.2 112.297
L55.82 113.124
L57.06 115.423
L57.68 116.508
L58.3 117.324
L58.92 117.711
L59.54 117.574
L60.16 116.913
L60.78 115.822
L62.64 111.972
L63.26 111.216
L63.88 110.954
L64.5 111.177
L65.12 111.779
L66.36 113.369
L66.98 113.968
L67.6 114.261
L68.22 114.223
L68.84 113.926
L70.08 113.118
L70.7 112.908
L71.32 112.953
L71.94 113.251
L73.8 114.724
L74.42 115.013
L75.04 115.093
L76.28 114.789
L77.52 114.453
L78.76 114.487
L79.38 114.53
L80 114.445
L80.62 114.125
L81.24 113.63
L81.86 112.78
L83.1 110.663
L83.72 109.892
L84.34 109.592
L84.96 109.867
L85.58 110.745
L86.2 112.139
L88.06 117.153
L88.68 118.199
L89.3 118.588
L89.92 118.272
L90.54 117.323
L91.78 114.329
L92.4 112.799
L93.02 111.568
L93.64 110.794
L94.26 110.535
L94.88 110.465
L95.5 111.113
L97.98 114.537
L100.46 115.297
L102.32 115.38
L103.56 115.149
L106.66 113.976
L107.9 114.114
L109.76 114.168
L110.38 114.045
L111 113.749
L111.62 113.269
L112.86 111.886
L114.1 110.223
L114.72 109.603
L115.34 109.449
L115.96 109.629
L116.58 110.091
L117.2 111.103
L117.82 111.402
L119.06 113.776
L119.68 113.807
L120.3 114.742
L120.92 115.466
L121.54 115.818
L121.54 115.818" style="fill:none;stroke:#000000;stroke-linecap:square;stroke-width:2;"/>
   </g>
  </g>
  <g id="axes_5">
   <g id="line2d_5">
    <path clip-path="url(#pcd4454e43c)" d="
M18 135.629
L19.24 133.666
L20.48 131.812
L21.1 131.313
L21.72 131.256
L22.34 131.674
L22.96 132.518
L24.82 136.169
L25.44 136.724
L26.06 137.643
L26.68 138.27
L27.3 138.627
L28.54 138.834
L29.16 138.334
L29.78 138.742
L31.02 138.577
L32.26 138.338
L34.74 136.627
L35.36 136.443
L35.98 136.409
L36.6 136.634
L38.46 137.618
L39.08 137.639
L39.7 138.002
L40.32 137.417
L41.56 135.876
L42.18 135.425
L42.8 135.335
L43.42 135.562
L44.04 136.063
L45.9 138.037
L46.52 138.425
L47.14 138.549
L47.76 138.411
L48.38 138.056
L49.62 136.977
L51.48 135.336
L52.72 134.607
L53.34 134.438
L53.96 134.423
L54.58 134.719
L55.2 135.299
L55.82 136.159
L58.3 140.661
L58.92 141.297
L59.54 141.41
L60.16 140.933
L60.78 139.899
L63.26 134.103
L63.88 133.512
L64.5 133.597
L65.12 134.316
L66.36 136.851
L66.98 138.091
L67.6 138.947
L68.22 139.255
L68.84 138.992
L69.46 138.272
L70.7 136.382
L71.32 135.702
L71.94 135.416
L72.56 135.547
L73.18 136.002
L74.42 137.201
L75.04 137.618
L75.66 137.805
L76.28 137.786
L78.14 137.46
L80 137.479
L80.62 137.191
L81.24 136.588
L82.48 134.635
L83.1 133.615
L83.72 133.085
L84.34 133.019
L84.96 133.634
L85.58 134.896
L87.44 140.171
L88.06 141.346
L88.68 141.822
L89.3 141.563
L89.92 140.688
L91.78 136.876
L92.4 135.991
L93.02 135.477
L93.64 135.283
L96.12 135.382
L96.74 135.458
L97.36 135.65
L97.98 136.038
L99.22 137.363
L100.46 138.897
L101.08 139.379
L101.7 139.502
L102.32 139.23
L102.94 138.615
L104.8 136.235
L105.42 135.81
L106.04 135.724
L106.66 135.953
L107.9 136.938
L109.14 137.595
L109.76 137.97
L110.38 137.883
L111 137.58
L112.24 136.5
L112.86 135.826
L113.48 134.728
L114.72 133.799
L117.2 134.96
L117.82 134.831
L119.06 137.027
L119.68 137.213
L120.3 137.067
L120.92 136.805
L121.54 136.338
L121.54 136.338" style="fill:none;stroke:#000000;stroke-linecap:square;stroke-width:2;"/>
   </g>
  </g>
  <g id="axes_6">
   <g id="line2d_6">
    <path clip-path="url(#p053b0300e8)" d="
M18 156.984
L20.48 152.707
L21.1 152.163
L21.72 152.109
L22.34 152.631
L22.96 153.735
L23.58 155.331
L24.82 159.224
L25.44 160.522
L26.06 162.163
L26.68 163.283
L27.3 163.82
L27.92 163.825
L28.54 163.431
L29.16 162.376
L29.78 161.99
L31.02 160.757
L31.64 160.36
L32.88 160.272
L34.74 160.023
L35.36 160.092
L36.6 160.84
L37.84 161.72
L38.46 161.969
L39.08 161.947
L39.7 162.215
L40.32 161.513
L42.18 158.658
L42.8 158.232
L43.42 158.159
L44.04 158.444
L44.66 159.018
L46.52 161.141
L47.14 161.539
L47.76 161.644
L48.38 161.448
L49 160.985
L50.24 159.542
L51.48 158
L52.1 157.408
L52.72 157.03
L53.34 156.923
L53.96 156.959
L54.58 157.607
L55.2 158.546
L58.3 164.36
L58.92 164.963
L59.54 165.055
L60.16 164.575
L60.78 163.535
L62.02 160.284
L63.26 157.035
L63.88 156.075
L64.5 155.808
L65.12 156.279
L65.74 157.389
L67.6 161.955
L68.22 162.893
L68.84 163.211
L69.46 162.914
L70.08 162.144
L71.32 160.158
L71.94 159.422
L72.56 159.054
L73.18 159.062
L73.8 159.357
L75.66 160.524
L76.9 160.759
L79.38 160.866
L80 160.737
L80.62 160.372
L81.24 159.692
L83.1 156.846
L83.72 156.473
L84.34 156.559
L84.96 157.301
L85.58 158.624
L87.44 163.446
L88.06 164.309
L88.68 164.494
L89.3 164.046
L90.54 162.091
L91.16 161.113
L91.78 160.401
L92.4 160.007
L94.88 159.342
L96.74 157.606
L97.36 157.48
L97.98 157.888
L99.22 160.329
L100.46 163.1
L101.08 163.956
L101.7 164.174
L102.32 163.713
L102.94 162.69
L104.8 158.808
L105.42 158.084
L106.04 157.853
L106.66 158.066
L109.76 160.576
L110.38 160.606
L111 160.436
L111.62 160.097
L112.86 159.004
L113.48 157.586
L114.72 156.484
L115.34 156.956
L115.96 157.028
L117.2 157.454
L117.82 157.403
L119.06 160.338
L119.68 160.552
L120.92 158.937
L121.54 158.014
L121.54 158.014" style="fill:none;stroke:#000000;stroke-linecap:square;stroke-width:2;"/>
   </g>
  </g>
  <g id="axes_7">
   <g id="line2d_7">
    <path clip-path="url(#p25c16377a7)" d="
M18 187.394
L18.62 186.766
L21.1 182.587
L21.72 182.238
L22.34 182.243
L24.2 182.795
L24.82 182.765
L25.44 182.252
L26.06 182.326
L26.68 182.661
L27.3 183.335
L28.54 185.482
L29.16 186.049
L29.78 187.014
L30.4 187.252
L31.02 186.851
L31.64 185.854
L32.26 184.476
L34.12 181.567
L34.74 181.468
L35.36 181.976
L37.22 185.034
L37.84 185.393
L38.46 185.083
L39.08 184.149
L39.7 183.551
L40.94 180.991
L41.56 180.235
L42.18 179.818
L42.8 180.647
L44.04 183.528
L44.66 184.965
L45.28 186.016
L45.9 186.513
L46.52 186.423
L47.14 185.833
L48.38 183.864
L49.62 182.006
L50.24 181.357
L50.86 180.901
L51.48 180.603
L52.1 180.436
L52.72 180.403
L53.34 180.542
L53.96 180.911
L54.58 181.523
L55.2 182.456
L56.44 185.023
L57.06 186.425
L57.68 187.509
L58.3 188.172
L58.92 188.289
L59.54 187.828
L60.16 186.859
L62.64 181.843
L63.26 181.312
L63.88 181.246
L64.5 181.562
L66.36 183.088
L66.98 183.258
L67.6 183.154
L69.46 182.202
L70.08 182.154
L70.7 182.397
L71.32 182.909
L73.18 184.797
L73.8 185.071
L74.42 185.048
L75.04 184.779
L76.28 183.985
L76.9 183.722
L77.52 183.65
L80 183.971
L80.62 183.614
L81.24 182.984
L83.72 179.769
L84.34 179.669
L84.96 180.075
L85.58 180.969
L86.82 183.764
L88.06 186.663
L88.68 187.654
L89.3 188.134
L89.92 188.031
L90.54 187.353
L91.16 186.192
L93.02 181.733
L93.64 180.669
L94.26 180.107
L94.88 179.779
L95.5 180.32
L96.74 182.325
L97.36 183.35
L97.98 184.14
L98.6 184.388
L99.22 184.476
L100.46 184.089
L101.7 183.74
L102.32 183.766
L103.56 184.141
L104.8 184.535
L106.04 184.69
L106.66 184.726
L107.28 184.92
L108.52 184.92
L109.76 184.775
L110.38 184.422
L111 183.851
L113.48 180.842
L114.1 180.305
L115.34 179.858
L115.96 180.317
L116.58 180.951
L117.2 182.673
L119.06 183.392
L119.68 183.359
L120.3 185.142
L120.92 186.562
L121.54 187.35
L121.54 187.35" style="fill:none;stroke:#000000;stroke-linecap:square;stroke-width:2;"/>
   </g>
  </g>
  <g id="axes_8">
   <g id="line2d_8">
    <path clip-path="url(#pbea2d715e4)" d="
M18 208.016
L18.62 207.473
L20.48 205.073
L21.1 204.565
L21.72 204.38
L22.34 204.514
L23.58 205.391
L24.82 206.288
L25.44 206.367
L27.92 207.296
L28.54 207.679
L29.16 207.761
L29.78 208.328
L30.4 208.5
L31.02 208.449
L32.26 207.806
L34.12 206.202
L34.74 205.991
L35.98 206.242
L37.22 207.014
L37.84 207.191
L38.46 207.077
L39.08 206.654
L39.7 206.484
L40.94 205.142
L41.56 204.678
L42.18 204.376
L42.8 204.85
L44.04 206.645
L45.28 208.403
L45.9 208.869
L46.52 208.965
L47.14 208.716
L47.76 208.206
L50.24 205.63
L51.48 204.799
L52.72 204.371
L53.34 204.357
L53.96 204.58
L54.58 205.005
L55.2 205.679
L58.3 209.962
L58.92 210.151
L59.54 209.896
L60.16 209.227
L62.64 205.308
L63.26 204.883
L63.88 204.884
L64.5 205.269
L66.36 207.291
L66.98 207.676
L67.6 207.723
L68.22 207.434
L70.7 205.367
L71.32 205.326
L71.94 205.591
L73.18 206.698
L74.42 207.71
L75.04 207.936
L75.66 207.952
L76.9 207.599
L78.14 207.219
L80 206.725
L81.24 205.874
L83.1 203.551
L83.72 203.143
L84.34 203.109
L84.96 203.566
L85.58 204.517
L86.82 207.45
L88.06 210.36
L88.68 211.238
L89.3 211.523
L89.92 211.171
L90.54 210.244
L91.78 207.334
L93.02 204.519
L93.64 203.65
L94.26 203.278
L94.88 203.19
L95.5 203.753
L96.74 205.597
L97.98 207.342
L98.6 207.814
L99.22 208.087
L99.84 208.149
L101.08 207.856
L104.18 206.754
L105.42 206.63
L106.66 206.897
L107.9 207.469
L109.76 208.003
L110.38 207.798
L111 207.363
L112.24 205.996
L113.48 204.574
L114.1 204.007
L115.34 203.352
L115.96 203.629
L116.58 204.103
L117.2 205.187
L117.82 205.582
L119.06 206.684
L119.68 206.735
L120.3 207.459
L120.92 207.995
L121.54 208.202
L121.54 208.202" style="fill:none;stroke:#000000;stroke-linecap:square;stroke-width:2;"/>
   </g>
  </g>
  <g id="axes_9">
   <g id="line2d_9">
    <path clip-path="url(#p0b4ac3770c)" d="
M18 229.19
L19.24 227.365
L19.86 226.414
L20.48 225.668
L21.1 225.275
L21.72 225.323
L22.34 225.818
L22.96 226.68
L24.82 229.914
L26.06 231.129
L26.68 231.378
L27.3 231.406
L28.54 231.176
L29.16 230.797
L29.78 230.975
L31.64 230.628
L32.26 230.715
L33.5 230.317
L34.74 229.949
L35.98 229.94
L37.84 230.396
L38.46 230.342
L39.08 230.1
L39.7 230.111
L42.18 228.169
L42.8 228.281
L43.42 228.643
L44.66 229.823
L45.9 230.935
L46.52 231.258
L47.14 231.379
L47.76 231.302
L48.38 231.054
L49.62 230.182
L52.72 227.51
L53.34 227.311
L53.96 227.362
L54.58 227.795
L55.2 228.555
L57.68 232.702
L58.3 233.421
L58.92 233.727
L59.54 233.554
L60.16 232.914
L60.78 231.893
L62.64 228.276
L63.26 227.544
L63.88 227.294
L64.5 227.553
L65.12 228.252
L66.98 231.193
L67.6 231.755
L68.22 231.869
L68.84 231.532
L69.46 230.844
L70.7 229.155
L71.32 228.553
L71.94 228.299
L72.56 228.423
L73.18 228.866
L75.04 230.699
L75.66 231.043
L76.28 231.162
L76.9 231.094
L78.76 230.433
L80 229.85
L81.24 228.869
L83.1 226.618
L83.72 226.364
L84.34 226.455
L84.96 227.073
L85.58 228.201
L88.06 234.122
L88.68 234.756
L89.3 234.751
L89.92 234.142
L90.54 233.065
L92.4 229.077
L93.02 228.096
L93.64 227.447
L94.26 227.129
L94.88 227.005
L95.5 227.207
L96.12 227.582
L97.36 228.692
L99.84 231.312
L100.46 231.701
L101.08 231.859
L101.7 231.76
L102.32 231.422
L104.8 229.351
L105.42 229.151
L106.04 229.19
L106.66 229.444
L107.9 230.231
L108.52 230.53
L109.14 230.702
L109.76 231.007
L110.38 230.844
L111 230.475
L112.24 229.321
L114.1 227.423
L114.72 227.107
L115.34 227.042
L115.96 227.253
L116.58 227.624
L117.2 228.296
L117.82 228.512
L119.06 229.961
L120.3 230.161
L120.92 230.099
L121.54 229.788
L121.54 229.788" style="fill:none;stroke:#000000;stroke-linecap:square;stroke-width:2;"/>
   </g>
  </g>
  <g id="axes_10">
   <g id="line2d_10">
    <path clip-path="url(#p2a88bd9f82)" d="
M18 250.778
L19.86 247.241
L20.48 246.382
L21.1 245.971
L21.72 246.117
L22.34 246.843
L22.96 248.076
L25.44 254.274
L26.06 255.356
L26.68 255.992
L27.3 256.212
L27.92 256.105
L28.54 255.784
L29.16 255.02
L29.78 254.784
L31.64 253.316
L33.5 252.943
L34.12 252.814
L34.74 252.832
L35.36 253.025
L36.6 253.927
L37.22 254.397
L37.84 254.722
L38.46 254.802
L39.08 254.581
L39.7 254.512
L40.94 252.969
L42.18 251.217
L42.8 250.934
L43.42 250.967
L44.04 251.293
L45.28 252.513
L46.52 253.821
L47.14 254.285
L47.76 254.544
L48.38 254.565
L49 254.336
L49.62 253.865
L50.86 252.368
L52.1 250.698
L52.72 250.1
L53.34 249.825
L53.96 249.801
L54.58 250.478
L55.2 251.596
L57.06 255.756
L57.68 256.947
L58.3 257.73
L58.92 257.99
L59.54 257.679
L60.16 256.829
L60.78 255.547
L62.64 250.96
L63.26 249.886
L63.88 249.326
L64.5 249.35
L65.12 249.936
L65.74 250.969
L67.6 254.653
L68.22 255.347
L68.84 255.548
L69.46 255.269
L70.08 254.624
L71.32 252.992
L71.94 252.393
L72.56 252.109
L73.18 252.16
L73.8 252.485
L75.66 253.853
L76.28 254.092
L76.9 254.165
L78.14 253.971
L79.38 253.546
L80.62 252.784
L81.24 252.263
L83.1 250.024
L83.72 249.748
L84.34 249.843
L84.96 250.456
L85.58 251.564
L88.06 257.141
L88.68 257.671
L89.3 257.611
L89.92 257.028
L91.16 254.958
L92.4 252.871
L93.02 252.085
L94.26 251.017
L95.5 250.436
L96.12 250.278
L96.74 250.32
L97.36 250.648
L97.98 251.313
L99.22 253.539
L100.46 255.742
L101.08 256.4
L101.7 256.587
L102.32 256.28
L102.94 255.556
L104.8 252.597
L105.42 251.942
L106.04 251.628
L106.66 251.645
L107.9 252.256
L109.76 253.359
L110.38 253.379
L111 253.203
L111.62 252.845
L112.86 251.715
L113.48 250.617
L114.72 249.54
L115.96 249.692
L116.58 249.988
L117.2 250.535
L117.82 250.838
L119.06 253.279
L119.68 253.415
L120.92 252.484
L121.54 251.749
L121.54 251.749" style="fill:none;stroke:#000000;stroke-linecap:square;stroke-width:2;"/>
   </g>
  </g>
  <g id="axes_11">
   <g id="line2d_11">
    <path clip-path="url(#p3e21b20e7e)" d="
M18 279.59
L18.62 278.9
L20.48 275.891
L21.1 275.457
L21.72 275.482
L22.34 275.855
L23.58 276.808
L24.2 277.001
L24.82 276.9
L25.44 276.383
L26.06 276.079
L26.68 275.934
L27.3 276.08
L27.92 276.55
L28.54 277.247
L29.16 277.652
L29.78 278.27
L30.4 278.464
L31.02 278.201
L33.5 275.618
L34.12 275.464
L34.74 275.799
L35.98 277.345
L36.6 278.306
L37.22 278.881
L37.84 278.86
L38.46 278.181
L39.08 276.954
L39.7 275.989
L40.32 274.581
L40.94 273.459
L41.56 272.881
L42.18 272.692
L42.8 273.659
L45.28 279.198
L45.9 279.646
L46.52 279.478
L47.14 278.78
L48.38 276.516
L49.62 274.336
L50.24 273.575
L50.86 273.075
L51.48 272.815
L52.1 272.772
L52.72 272.932
L53.34 273.299
L53.96 273.943
L54.58 274.778
L55.82 277.07
L57.06 279.452
L57.68 280.337
L58.3 280.797
L58.92 280.744
L59.54 280.174
L60.16 279.181
L62.02 275.649
L62.64 275.011
L63.26 274.867
L63.88 275.201
L65.12 276.696
L65.74 277.407
L66.36 277.806
L66.98 277.768
L67.6 277.288
L69.46 274.749
L70.08 274.279
L70.7 274.266
L71.32 274.713
L72.56 276.429
L73.18 277.262
L73.8 277.807
L74.42 277.964
L75.04 277.742
L77.52 275.928
L78.14 275.906
L80 276.333
L80.62 276.149
L81.24 275.606
L83.1 273.259
L83.72 272.841
L84.34 272.86
L84.96 273.426
L85.58 274.504
L88.06 280.333
L88.68 281.071
L89.3 281.224
L89.92 280.783
L90.54 279.829
L91.78 277.034
L93.02 274.407
L93.64 273.598
L94.26 273.25
L94.88 273.093
L95.5 273.592
L97.98 276.747
L98.6 277.175
L99.22 277.349
L100.46 277.237
L104.8 276.151
L105.42 276.188
L106.04 276.407
L106.66 276.836
L108.52 278.581
L109.76 279.199
L110.38 278.743
L111 277.841
L112.86 274.157
L113.48 273.243
L114.1 272.774
L114.72 272.819
L115.34 272.625
L116.58 274.297
L117.2 275.923
L117.82 276.615
L118.44 276.567
L119.06 276.328
L119.68 276.278
L120.3 277.85
L120.92 279.068
L121.54 279.678
L121.54 279.678" style="fill:none;stroke:#000000;stroke-linecap:square;stroke-width:2;"/>
   </g>
  </g>
  <g id="axes_12">
   <g id="line2d_12">
    <path clip-path="url(#paf23cbe904)" d="
M18 300.539
L18.62 300.071
L20.48 298.281
L21.1 298.019
L21.72 298.049
L22.34 298.342
L24.2 299.763
L24.82 300.055
L25.44 300.183
L26.68 300.039
L27.92 299.906
L31.02 300.176
L33.5 299.562
L34.12 299.499
L34.74 299.609
L36.6 300.381
L37.22 300.541
L37.84 300.444
L38.46 300.051
L40.32 298.232
L40.94 297.684
L41.56 297.403
L42.18 297.27
L42.8 297.882
L44.04 299.85
L44.66 300.854
L45.28 301.641
L45.9 302.095
L46.52 302.173
L47.14 301.899
L47.76 301.351
L50.86 297.757
L51.48 297.276
L52.1 296.941
L52.72 296.784
L53.34 296.842
L53.96 297.25
L54.58 297.875
L55.82 299.767
L56.44 300.837
L57.68 302.408
L58.3 302.844
L58.92 302.862
L59.54 302.459
L60.16 301.706
L62.02 298.907
L62.64 298.37
L63.26 298.224
L63.88 298.473
L64.5 299.034
L65.74 300.453
L66.36 300.951
L66.98 301.12
L67.6 300.913
L68.22 300.371
L70.08 298.193
L70.7 297.843
L71.32 297.856
L71.94 298.216
L73.18 299.55
L73.8 300.222
L74.42 300.717
L75.04 300.967
L75.66 300.972
L76.9 300.512
L78.14 299.984
L80 299.357
L81.24 298.498
L83.1 296.45
L83.72 296.182
L84.34 296.257
L84.96 296.804
L85.58 297.812
L86.82 300.735
L88.06 303.49
L88.68 304.267
L89.3 304.457
L89.92 304.03
L90.54 303.054
L91.78 300.123
L93.02 297.349
L93.64 296.506
L94.26 296.164
L94.88 296.156
L95.5 296.738
L96.74 298.614
L97.98 300.352
L98.6 300.899
L99.22 301.123
L99.84 301.107
L101.08 300.615
L102.94 299.685
L104.18 299.324
L105.42 299.304
L106.04 299.464
L107.28 300.106
L108.52 300.751
L109.14 300.923
L109.76 301.215
L110.38 300.963
L111 300.432
L114.1 296.855
L114.72 296.659
L115.34 296.269
L115.96 296.627
L116.58 297.168
L117.2 298.348
L117.82 299.036
L119.06 299.626
L119.68 299.638
L120.3 300.199
L120.92 300.602
L121.54 300.729
L121.54 300.729" style="fill:none;stroke:#000000;stroke-linecap:square;stroke-width:2;"/>
   </g>
  </g>
  <g id="axes_13">
   <g id="line2d_13">
    <path clip-path="url(#p423fd2dc85)" d="
M18 325.045
L18.62 324.328
L19.86 322.507
L20.48 321.977
L21.1 321.932
L21.72 322.352
L23.58 324.373
L24.2 324.537
L24.82 324.287
L26.68 322.635
L27.3 322.461
L27.92 322.657
L29.78 324.255
L30.4 324.449
L31.02 324.209
L32.26 322.969
L33.5 322.287
L34.12 322.338
L34.74 322.819
L36.6 325.055
L37.22 325.374
L37.84 325.074
L38.46 324.151
L40.32 320.266
L40.94 319.325
L41.56 319.012
L42.18 319.165
L42.8 320.325
L44.66 325.087
L45.28 326.147
L45.9 326.625
L46.52 326.498
L47.14 325.841
L48.38 323.554
L49.62 321.049
L50.24 320.012
L50.86 319.199
L51.48 318.645
L52.1 318.376
L52.72 318.423
L53.34 318.814
L53.96 319.738
L54.58 320.861
L57.06 326.402
L57.68 327.318
L58.3 327.691
L58.92 327.456
L59.54 326.652
L60.78 323.997
L61.4 322.647
L62.02 321.632
L62.64 321.143
L63.26 321.258
L63.88 321.918
L65.74 324.923
L66.36 325.34
L66.98 325.152
L67.6 324.37
L69.46 320.6
L70.08 319.855
L70.7 319.73
L71.32 320.239
L71.94 321.24
L73.18 323.642
L73.8 324.481
L74.42 324.834
L75.04 324.688
L75.66 324.161
L76.9 322.807
L77.52 322.375
L78.14 322.23
L80 322.609
L80.62 322.468
L81.24 321.933
L83.1 319.698
L83.72 319.357
L84.34 319.475
L84.96 320.168
L85.58 321.378
L87.44 326.071
L88.06 327.138
L88.68 327.628
L89.3 327.478
L89.92 326.732
L90.54 325.528
L92.4 321.218
L93.02 320.219
L93.64 319.657
L94.26 319.559
L94.88 319.688
L95.5 320.335
L97.36 322.823
L98.6 323.978
L99.22 324.249
L100.46 324.402
L101.7 324.162
L102.94 323.511
L104.8 322.229
L105.42 322.089
L106.04 322.268
L106.66 322.802
L108.52 325.217
L109.76 326.056
L110.38 325.422
L111 324.192
L112.86 319.322
L113.48 318.101
L114.1 317.667
L114.72 317.942
L115.34 317.975
L116.58 320.24
L117.2 321.904
L117.82 323.069
L118.44 323.082
L119.68 322.728
L120.3 323.974
L120.92 324.898
L121.54 325.275
L121.54 325.275" style="fill:none;stroke:#000000;stroke-linecap:square;stroke-width:2;"/>
   </g>
  </g>
  <g id="axes_14">
   <g id="line2d_14">
    <path clip-path="url(#p8d16893679)" d="
M18 346.335
L19.86 344.858
L20.48 344.603
L21.1 344.635
L21.72 344.961
L22.96 346.155
L23.58 346.757
L24.2 347.196
L25.44 347.542
L26.68 346.968
L27.92 346.378
L28.54 346.226
L30.4 346.166
L32.26 345.742
L33.5 345.783
L34.12 345.962
L36.6 347.213
L37.22 347.242
L37.84 346.948
L38.46 346.337
L40.32 343.98
L40.94 343.491
L41.56 343.367
L42.18 343.474
L42.8 344.278
L45.28 348.76
L45.9 349.337
L46.52 349.496
L47.14 349.25
L47.76 348.661
L49 346.833
L50.86 343.81
L51.48 343.018
L52.1 342.443
L52.72 342.156
L53.34 342.217
L53.96 342.826
L54.58 343.733
L55.82 346.339
L56.44 347.73
L57.68 349.616
L58.3 350.05
L58.92 349.938
L59.54 349.31
L60.78 347.072
L61.4 345.892
L62.02 344.969
L62.64 344.468
L63.26 344.463
L63.88 344.919
L66.36 347.877
L66.98 347.914
L67.6 347.485
L68.22 346.68
L69.46 344.699
L70.08 343.968
L70.7 343.641
L71.32 343.783
L71.94 344.349
L74.42 347.634
L75.04 347.932
L75.66 347.923
L76.9 347.327
L78.14 346.635
L80 345.78
L81.24 344.739
L83.1 342.601
L83.72 342.358
L84.34 342.535
L84.96 343.219
L85.58 344.376
L88.06 350.228
L88.68 350.89
L89.3 350.924
L89.92 350.327
L90.54 349.195
L93.02 343.348
L93.64 342.604
L94.26 342.396
L94.88 342.577
L95.5 343.314
L97.98 347.259
L98.6 347.829
L99.22 348.028
L99.84 347.965
L101.08 347.361
L102.94 346.309
L104.18 345.876
L105.42 345.776
L106.04 345.901
L107.28 346.502
L108.52 347.106
L109.14 347.236
L109.76 347.507
L110.38 347.148
L111 346.473
L113.48 342.867
L114.1 342.45
L114.72 342.408
L115.34 342.164
L115.96 342.671
L116.58 343.358
L117.2 344.618
L117.82 345.575
L119.06 346.126
L119.68 346.079
L120.3 346.425
L120.92 346.634
L121.54 346.611
L121.54 346.611" style="fill:none;stroke:#000000;stroke-linecap:square;stroke-width:2;"/>
   </g>
  </g>
  <g id="axes_15">
   <g id="line2d_15">
    <path clip-path="url(#pdcf92b45fb)" d="
M18 369.33
L19.24 367.997
L19.86 367.528
L20.48 367.436
L21.1 367.782
L21.72 368.496
L22.96 370.254
L23.58 370.848
L24.2 371.053
L24.82 370.866
L25.44 370.511
L26.68 369.581
L27.3 369.412
L27.92 369.542
L28.54 369.912
L29.78 371.064
L30.4 371.172
L31.02 370.88
L32.26 369.721
L33.5 369.077
L34.12 369.089
L34.74 369.412
L35.98 370.365
L36.6 370.702
L37.22 370.632
L37.84 370.081
L38.46 369.108
L39.08 367.892
L40.32 366
L40.94 365.546
L41.56 365.673
L42.18 366.253
L43.42 368.879
L44.66 371.538
L45.28 372.409
L45.9 372.858
L46.52 372.885
L47.14 372.545
L47.76 371.914
L49 370.078
L51.48 365.852
L52.1 365.132
L52.72 364.759
L53.34 364.83
L53.96 365.635
L54.58 366.722
L55.82 369.837
L56.44 371.472
L57.68 373.747
L58.3 374.158
L58.92 373.91
L59.54 373.056
L60.78 370.27
L61.4 368.864
L62.02 367.805
L62.64 367.281
L63.26 367.367
L63.88 367.998
L65.74 370.946
L66.36 371.374
L66.98 371.22
L67.6 370.492
L69.46 366.899
L70.08 366.174
L70.7 366.041
L71.32 366.524
L71.94 367.5
L73.18 369.965
L73.8 370.93
L74.42 371.477
L75.04 371.57
L75.66 371.289
L77.52 369.841
L78.14 369.59
L80 369.312
L80.62 369.026
L81.86 367.872
L83.1 366.755
L83.72 366.568
L84.34 366.778
L84.96 367.416
L86.2 369.603
L87.44 371.802
L88.06 372.438
L88.68 372.61
L89.3 372.296
L89.92 371.552
L91.16 369.301
L92.4 367.156
L93.02 366.499
L93.64 366.232
L94.26 366.365
L94.88 366.806
L97.36 370.103
L97.98 370.633
L98.6 370.982
L99.22 371.204
L100.46 371.302
L101.7 371.107
L102.94 370.581
L105.42 369.105
L106.04 369.082
L106.66 369.324
L108.52 370.715
L109.76 371
L110.38 370.32
L111 369.168
L112.86 364.845
L113.48 363.676
L114.1 363.343
L115.34 364.051
L116.58 366.202
L117.82 368.785
L118.44 369.182
L119.06 369.405
L119.68 369.256
L120.3 369.666
L120.92 369.88
L121.54 369.77
L121.54 369.77" style="fill:none;stroke:#000000;stroke-linecap:square;stroke-width:2;"/>
   </g>
  </g>
  <g id="axes_16">
   <g id="line2d_16">
    <path clip-path="url(#p37ff8ca1e4)" d="
M18 390.305
L18.62 389.544
L19.24 388.94
L19.86 388.659
L20.48 388.806
L21.1 389.396
L22.34 391.439
L22.96 392.502
L23.58 393.334
L24.2 393.823
L24.82 393.966
L25.44 393.976
L26.68 393.671
L27.3 393.646
L28.54 394.014
L29.16 394.321
L29.78 394.825
L30.4 394.738
L31.02 394.321
L32.26 393.186
L32.88 392.849
L33.5 392.643
L34.12 392.705
L35.98 393.65
L36.6 393.588
L37.22 393.107
L37.84 392.215
L39.7 388.851
L40.32 388.176
L40.94 388.06
L41.56 388.539
L42.18 389.456
L44.66 394.706
L45.28 395.512
L45.9 395.987
L46.52 396.16
L47.14 396.076
L47.76 395.77
L48.38 395.255
L49 394.53
L50.24 392.47
L52.1 388.879
L52.72 388.11
L53.34 387.82
L53.96 388.354
L54.58 389.248
L55.2 390.619
L57.06 395.535
L57.68 396.762
L58.3 397.392
L58.92 397.338
L59.54 396.63
L60.16 395.413
L62.02 391.201
L62.64 390.461
L63.26 390.306
L63.88 390.71
L65.12 392.491
L65.74 393.347
L66.36 393.841
L66.98 393.821
L67.6 393.266
L68.84 391.138
L69.46 390.069
L70.08 389.346
L70.7 389.145
L71.32 389.516
L71.94 390.38
L73.8 393.915
L74.42 394.722
L75.04 395.159
L75.66 395.25
L76.28 395.085
L78.76 393.731
L80 392.931
L81.24 391.789
L82.48 390.661
L83.1 390.354
L83.72 390.282
L84.34 390.524
L84.96 391.051
L87.44 394.08
L88.06 394.469
L88.68 394.537
L89.3 394.267
L89.92 393.685
L91.16 391.915
L92.4 390.177
L93.02 389.661
L93.64 389.515
L94.26 389.77
L94.88 390.468
L97.36 394.396
L97.98 394.854
L99.22 394.915
L100.46 394.546
L101.7 394.184
L104.18 393.754
L106.66 393.031
L107.28 393.092
L108.52 392.924
L109.76 392.534
L110.38 391.87
L111 390.913
L113.48 386.28
L114.1 385.892
L114.72 386.01
L115.34 386.564
L115.96 387.399
L117.2 389.568
L117.82 390.815
L119.06 392.734
L119.68 392.592
L120.92 391.704
L121.54 391.063
L121.54 391.063" style="fill:none;stroke:#000000;stroke-linecap:square;stroke-width:2;"/>
   </g>
  </g>
  <g id="axes_17">
   <g id="line2d_17">
    <path clip-path="url(#pfa29b29c2d)" d="
M18 411.667
L18.62 410.608
L19.24 409.804
L19.86 409.419
L20.48 409.56
L21.1 410.243
L21.72 411.379
L23.58 415.611
L24.2 416.662
L24.82 417.371
L25.44 417.84
L26.06 418.117
L27.3 418.255
L28.54 418.139
L29.16 417.888
L29.78 417.95
L30.4 417.553
L31.64 416.449
L32.88 416.109
L33.5 416.295
L35.98 418.036
L36.6 417.652
L37.22 416.721
L38.46 413.657
L39.08 412.013
L39.7 410.789
L40.32 410.02
L40.94 409.965
L41.56 410.625
L42.18 411.748
L44.66 417.955
L45.28 418.922
L45.9 419.521
L46.52 419.79
L47.14 419.779
L47.76 419.527
L48.38 419.053
L49 418.356
L49.62 417.435
L50.86 415.042
L52.1 412.542
L52.72 411.618
L53.34 411.116
L53.96 411.398
L54.58 411.984
L55.2 413.07
L56.44 416.178
L57.68 419.287
L58.3 420.263
L58.92 420.625
L59.54 420.328
L60.16 419.438
L62.64 414.228
L63.26 413.729
L63.88 413.808
L64.5 414.377
L65.74 416.102
L66.36 416.712
L66.98 416.861
L67.6 416.468
L68.22 415.597
L70.08 412.349
L70.7 411.909
L71.32 412.053
L71.94 412.762
L73.18 415.26
L74.42 417.792
L75.04 418.65
L75.66 419.15
L76.28 419.313
L76.9 419.197
L77.52 418.874
L78.76 417.827
L80.62 415.727
L81.86 414.295
L82.48 413.844
L83.1 413.614
L83.72 413.564
L84.34 413.739
L84.96 414.121
L86.2 415.303
L87.44 416.554
L88.06 417
L88.68 417.22
L89.3 417.152
L89.92 416.768
L90.54 416.088
L92.4 413.353
L93.02 412.769
L93.64 412.616
L94.26 412.967
L94.88 413.934
L96.74 418.002
L97.36 418.869
L97.98 419.222
L99.22 418.504
L101.08 416.836
L101.7 416.617
L102.32 416.662
L104.8 417.62
L105.42 417.543
L106.04 417.28
L107.9 416.057
L109.14 414.956
L109.76 414.7
L110.38 414.087
L111 413.293
L112.24 411.218
L113.48 408.795
L114.1 408.113
L114.72 407.858
L115.34 408.117
L115.96 408.784
L117.2 410.904
L118.44 414.234
L119.06 416.062
L119.68 415.934
L120.92 413.933
L121.54 412.817
L121.54 412.817" style="fill:none;stroke:#000000;stroke-linecap:square;stroke-width:2;"/>
   </g>
  </g>
  <g id="axes_18">
   <g id="line2d_18">
    <path clip-path="url(#p5a2f587196)" d="
M18 439.67
L18.62 438.873
L19.86 436.343
L20.48 434.985
L21.1 433.899
L21.72 433.326
L22.34 433.427
L22.96 434.24
L23.58 435.653
L24.82 439.23
L25.44 439.712
L26.06 440.818
L26.68 441.323
L27.3 441.237
L27.92 440.709
L28.54 439.984
L29.16 438.942
L29.78 438.504
L30.4 438.26
L31.02 438.36
L31.64 438.643
L32.26 438.753
L32.88 439.044
L33.5 438.959
L34.74 438.185
L35.36 437.822
L35.98 437.819
L36.6 438.23
L38.46 440.409
L39.7 441.086
L40.32 440.59
L41.56 439.23
L42.18 438.758
L42.8 438.755
L43.42 439.196
L44.66 440.961
L45.28 441.846
L45.9 442.423
L46.52 442.542
L47.14 442.165
L47.76 441.361
L50.86 436.032
L52.1 434.84
L52.72 434.493
L53.34 434.353
L53.96 435.014
L54.58 435.36
L55.2 436.051
L55.82 437.117
L56.44 438.505
L57.68 441.913
L58.3 443.12
L58.92 443.8
L59.54 443.859
L60.16 443.312
L60.78 442.281
L62.64 438.455
L63.26 437.651
L63.88 437.289
L64.5 437.353
L65.12 437.75
L66.98 439.39
L67.6 439.642
L68.22 439.654
L68.84 439.461
L71.32 438.23
L72.56 437.985
L75.66 437.619
L76.28 437.825
L76.9 438.265
L78.14 439.748
L78.76 440.563
L79.38 441.189
L80 441.446
L80.62 441.208
L81.86 439.001
L83.1 436.222
L83.72 435.334
L84.34 434.791
L84.96 434.919
L85.58 435.711
L86.2 437.032
L88.06 441.66
L88.68 442.592
L89.3 442.98
L89.92 442.84
L90.54 442.284
L92.4 439.929
L93.02 439.453
L93.64 439.262
L94.26 439.325
L96.74 440.402
L97.36 440.239
L97.98 439.815
L98.6 438.859
L99.84 437.868
L100.46 437.68
L101.08 437.798
L101.7 438.205
L103.56 439.907
L104.18 440.06
L104.8 439.801
L105.42 439.142
L106.66 437.206
L107.9 436.161
L108.52 436.109
L109.14 436.658
L111 440.423
L111.62 441.278
L112.24 441.574
L112.86 441.233
L114.72 437.872
L115.96 436.887
L116.58 436.768
L117.2 436.141
L117.82 436.142
L119.06 439.048
L119.68 439.161
L120.3 439.668
L120.92 440.009
L121.54 440.041
L121.54 440.041" style="fill:none;stroke:#000000;stroke-linecap:square;stroke-width:2;"/>
   </g>
  </g>
  <g id="axes_19">
   <g id="line2d_19">
    <path clip-path="url(#p0259813f7b)" d="
M18 463.907
L18.62 464.205
L19.24 464.394
L19.86 464.43
L20.48 464.268
L21.1 463.874
L21.72 463.238
L22.96 461.398
L24.2 459.523
L24.82 458.963
L25.44 458.939
L26.06 459.425
L26.68 460.447
L27.92 463.522
L28.54 465.085
L29.78 467.092
L30.4 466.916
L31.02 465.936
L33.5 459.805
L34.12 458.682
L34.74 458.17
L35.36 458.309
L36.6 460.986
L37.22 462.113
L37.84 462.901
L38.46 463.21
L39.08 463.041
L39.7 463.378
L40.94 462.255
L41.56 461.941
L42.18 461.488
L42.8 462.163
L44.66 465.015
L45.28 465.575
L45.9 465.73
L46.52 465.493
L47.14 464.956
L49.62 462.26
L53.34 459.265
L53.96 459.599
L54.58 459.6
L55.2 459.968
L55.82 460.711
L57.06 462.919
L58.3 465.177
L58.92 465.85
L59.54 466.085
L60.16 465.855
L60.78 465.196
L61.4 464.193
L63.88 459.336
L64.5 458.568
L65.12 458.166
L65.74 458.158
L66.36 458.524
L66.98 459.198
L69.46 462.767
L70.08 463.348
L70.7 463.681
L71.32 463.763
L71.94 463.618
L73.18 462.838
L74.42 461.843
L75.04 461.46
L75.66 461.265
L76.28 461.328
L76.9 461.69
L77.52 462.347
L80 465.786
L80.62 466.003
L81.24 465.623
L81.86 464.775
L83.1 461.961
L83.72 460.293
L84.34 458.957
L84.96 458.113
L85.58 457.902
L86.2 458.354
L86.82 459.378
L89.3 464.752
L89.92 465.273
L90.54 465.224
L91.16 464.658
L92.4 462.58
L93.64 460.603
L94.26 460.092
L94.88 459.968
L95.5 460.455
L96.74 462.179
L97.36 463.068
L97.98 463.756
L98.6 463.52
L99.22 463.662
L100.46 463.475
L101.08 463.381
L101.7 463.428
L102.32 463.662
L104.18 464.849
L104.8 464.962
L105.42 464.729
L106.04 464.126
L106.66 463.222
L107.28 462.529
L108.52 460.921
L109.76 460.07
L110.38 460.485
L111.62 461.748
L112.24 462.179
L112.86 462.254
L113.48 461.784
L114.1 461.003
L114.72 459.959
L115.34 459.19
L115.96 458.6
L116.58 458.424
L117.2 459.342
L117.82 459.466
L119.06 462.206
L119.68 462.235
L121.54 463.537
L121.54 463.537" style="fill:none;stroke:#000000;stroke-linecap:square;stroke-width:2;"/>
   </g>
  </g>
  <g id="axes_20">
   <g id="line2d_20">
    <path clip-path="url(#p1887ef8d34)" d="
M18 486.305
L18.62 486.133
L19.24 485.774
L20.48 484.595
L21.72 483.264
L22.34 482.767
L22.96 482.482
L23.58 482.447
L24.2 482.661
L24.82 483.093
L25.44 483.174
L26.68 485.063
L28.54 488.046
L29.16 488.122
L29.78 488.87
L30.4 488.768
L31.02 488.217
L32.26 486.079
L34.12 482.549
L34.74 481.901
L35.36 481.789
L35.98 482.504
L38.46 486.201
L39.08 486.363
L39.7 486.939
L42.18 484.312
L42.8 484.772
L43.42 485.69
L45.28 489.154
L45.9 489.749
L46.52 489.82
L47.14 489.383
L47.76 488.552
L50.24 484.43
L51.48 483.055
L52.72 482.1
L53.34 481.812
L53.96 482.251
L54.58 482.336
L55.2 482.796
L55.82 483.679
L56.44 484.942
L57.68 488.118
L58.3 489.384
L58.92 490.168
L59.54 490.326
L60.16 489.814
L60.78 488.705
L63.26 482.622
L63.88 481.882
L64.5 481.72
L65.12 482.085
L65.74 482.834
L66.98 484.666
L67.6 485.361
L68.22 485.751
L68.84 485.825
L69.46 485.653
L70.7 485.086
L71.32 484.932
L71.94 484.947
L73.18 485.353
L74.42 485.719
L75.66 485.704
L76.28 485.685
L76.9 485.802
L77.52 486.141
L78.14 486.717
L79.38 488.178
L80 488.671
L80.62 488.713
L81.24 488.197
L81.86 487.021
L83.1 483.431
L83.72 481.662
L84.34 480.389
L84.96 479.887
L85.58 480.289
L86.2 481.546
L87.44 485.595
L88.06 487.63
L88.68 489.173
L89.3 489.973
L89.92 489.943
L90.54 489.163
L91.78 486.319
L92.4 484.869
L93.02 483.761
L93.64 483.153
L94.26 483.083
L94.88 483.426
L97.36 486.929
L97.98 487.284
L98.6 486.798
L99.84 486.524
L100.46 486.382
L101.08 486.363
L101.7 486.51
L102.94 487.191
L103.56 487.542
L104.18 487.739
L104.8 487.681
L105.42 487.317
L106.04 486.671
L106.66 485.835
L107.28 485.333
L107.9 484.606
L108.52 484.125
L109.76 483.862
L111.62 485.483
L112.24 485.696
L112.86 485.497
L113.48 484.71
L114.72 482.6
L115.96 481.633
L116.58 481.593
L117.2 482.053
L117.82 482.098
L119.06 485.461
L119.68 485.625
L120.92 486.158
L121.54 486.303
L121.54 486.303" style="fill:none;stroke:#000000;stroke-linecap:square;stroke-width:2;"/>
   </g>
  </g>
  <g id="text_1">
   <!-- 1 -->
   <defs>
    <path d="
M12.4062 8.29688
L28.5156 8.29688
L28.5156 63.9219
L10.9844 60.4062
L10.9844 69.3906
L28.4219 72.9062
L38.2812 72.9062
L38.2812 8.29688
L54.3906 8.29688
L54.3906 0
L12.4062 0
z
" id="DejaVuSans-31"/>
   </defs>
   <g transform="translate(69.395625 20.638125)scale(0.12 -0.12)">
    <use xlink:href="#DejaVuSans-31"/>
   </g>
  </g>
 </g>
 <defs>
  <clipPath id="pd4186d8de6">
   <rect height="19.3613445378" width="111.6" x="18.0" y="499.038655462"/>
  </clipPath>
  <clipPath id="p0b4ac3770c">
   <rect height="19.3613445378" width="111.6" x="18.0" y="220.235294118"/>
  </clipPath>
  <clipPath id="pfa29b29c2d">
   <rect height="19.3613445378" width="111.6" x="18.0" y="406.104201681"/>
  </clipPath>
  <clipPath id="paf23cbe904">
   <rect height="19.3613445378" width="111.6" x="18.0" y="289.936134454"/>
  </clipPath>
  <clipPath id="p423fd2dc85">
   <rect height="19.3613445378" width="111.6" x="18.0" y="313.169747899"/>
  </clipPath>
  <clipPath id="p2a88bd9f82">
   <rect height="19.3613445378" width="111.6" x="18.0" y="243.468907563"/>
  </clipPath>
  <clipPath id="pba91d7df7c">
   <rect height="19.3613445378" width="111.6" x="18.0" y="57.6"/>
  </clipPath>
  <clipPath id="p25c16377a7">
   <rect height="19.3613445378" width="111.6" x="18.0" y="173.768067227"/>
  </clipPath>
  <clipPath id="p0fe9a44d96">
   <rect height="19.3613445378" width="111.6" x="18.0" y="104.067226891"/>
  </clipPath>
  <clipPath id="pbea2d715e4">
   <rect height="19.3613445378" width="111.6" x="18.0" y="197.001680672"/>
  </clipPath>
  <clipPath id="pdcf92b45fb">
   <rect height="19.3613445378" width="111.6" x="18.0" y="359.63697479"/>
  </clipPath>
  <clipPath id="p0259813f7b">
   <rect height="19.3613445378" width="111.6" x="18.0" y="452.571428571"/>
  </clipPath>
  <clipPath id="p053b0300e8">
   <rect height="19.3613445378" width="111.6" x="18.0" y="150.534453782"/>
  </clipPath>
  <clipPath id="p1887ef8d34">
   <rect height="19.3613445378" width="111.6" x="18.0" y="475.805042017"/>
  </clipPath>
  <clipPath id="pdffdb5c0e8">
   <rect height="19.3613445378" width="111.6" x="18.0" y="80.8336134454"/>
  </clipPath>
  <clipPath id="p37ff8ca1e4">
   <rect height="19.3613445378" width="111.6" x="18.0" y="382.870588235"/>
  </clipPath>
  <clipPath id="p3e21b20e7e">
   <rect height="19.3613445378" width="111.6" x="18.0" y="266.702521008"/>
  </clipPath>
  <clipPath id="p8d16893679">
   <rect height="19.3613445378" width="111.6" x="18.0" y="336.403361345"/>
  </clipPath>
  <clipPath id="p5a2f587196">
   <rect height="19.3613445378" width="111.6" x="18.0" y="429.337815126"/>
  </clipPath>
  <clipPath id="pcd4454e43c">
   <rect height="19.3613445378" width="111.6" x="18.0" y="127.300840336"/>
  </clipPath>
 </defs>
</svg>
