<?xml version="1.0" encoding="utf-8" standalone="no"?>
<!DOCTYPE svg PUBLIC "-//W3C//DTD SVG 1.1//EN"
  "http://www.w3.org/Graphics/SVG/1.1/DTD/svg11.dtd">
<!-- Created with matplotlib (http://matplotlib.org/) -->
<svg height="576pt" version="1.1" viewBox="0 0 144 576" width="144pt" xmlns="http://www.w3.org/2000/svg" xmlns:xlink="http://www.w3.org/1999/xlink">
 <defs>
  <style type="text/css">
*{stroke-linecap:butt;stroke-linejoin:round;}
  </style>
 </defs>
 <g id="figure_1">
  <g id="patch_1">
   <path d="
M0 576
L144 576
L144 0
L0 0
z
" style="fill:#ffffff;"/>
  </g>
  <g id="axes_1">
   <g id="line2d_1">
    <path clip-path="url(#pd4186d8de6)" d="
M18 508.247
L18.62 508.607
L19.86 509.802
L21.1 510.931
L21.72 511.138
L22.34 510.96
L22.96 510.356
L23.58 509.363
L25.44 505.706
L26.06 504.871
L26.68 504.581
L27.3 504.917
L27.92 505.858
L29.16 508.927
L30.4 512.27
L31.02 513.253
L31.64 513.56
L32.26 513.245
L32.88 512.3
L34.12 509.101
L35.36 506.147
L35.98 505.549
L36.6 505.194
L37.22 505.289
L37.84 505.724
L39.08 507.037
L39.7 507.987
L40.94 508.974
L41.56 509.282
L42.18 509.203
L44.04 509.893
L44.66 509.984
L45.28 509.944
L46.52 509.476
L47.76 508.839
L48.38 508.635
L49 508.566
L50.24 508.745
L51.48 508.895
L52.1 508.801
L53.34 508.293
L54.58 507.734
L55.2 507.686
L55.82 507.843
L59.54 509.692
L60.78 510.27
L62.64 511.45
L63.26 511.601
L63.88 511.426
L64.5 510.862
L65.12 509.929
L66.98 506.43
L67.6 505.726
L68.22 505.517
L68.84 505.822
L69.46 506.549
L71.32 509.371
L71.94 509.919
L72.56 510.123
L73.18 510.011
L74.42 509.204
L76.28 507.84
L77.52 507.195
L78.76 506.835
L79.38 506.849
L80 507.05
L81.24 507.773
L83.1 509.859
L83.72 510.219
L84.34 510.269
L84.96 510.07
L86.2 509.225
L87.44 508.419
L88.68 508.059
L89.92 508.02
L91.16 508.122
L92.4 508.491
L94.26 509.586
L95.5 509.353
L96.12 508.985
L97.36 507.625
L98.6 506.213
L99.22 505.88
L99.84 506.099
L100.46 506.901
L101.08 508.185
L102.32 511.265
L102.94 512.491
L103.56 513.189
L104.18 513.254
L104.8 512.713
L105.42 511.713
L107.28 508.237
L107.9 507.45
L108.52 506.981
L109.14 506.781
L110.38 507.084
L112.24 507.496
L112.86 507.821
L113.48 507.999
L114.72 509.622
L115.96 511.403
L116.58 511.839
L117.2 511.905
L118.44 509.934
L119.06 508.622
L119.68 508.718
L120.92 508.174
L121.54 508.106
L121.54 508.106" style="fill:none;stroke:#000000;stroke-linecap:square;stroke-width:2;"/>
   </g>
  </g>
  <g id="axes_2">
   <g id="line2d_2">
    <path clip-path="url(#pba91d7df7c)" d="
M18 66.9957
L18.62 67.367
L21.1 69.305
L21.72 69.3874
L22.34 69.1466
L22.96 68.5718
L24.2 66.6588
L25.44 64.5621
L26.06 63.9456
L26.68 63.7807
L27.3 64.1196
L27.92 64.9383
L29.16 67.5236
L30.4 70.3067
L31.02 71.0998
L31.64 71.2981
L32.26 70.9359
L32.88 69.8734
L35.36 64.5055
L35.98 64.0648
L36.6 63.8374
L37.22 64.0121
L37.84 64.4792
L39.08 65.7637
L39.7 66.5752
L40.94 67.6231
L41.56 67.9799
L42.18 68.0149
L43.42 68.5067
L44.04 68.6181
L44.66 68.5947
L45.28 68.4255
L47.76 67.2355
L48.38 67.1835
L49 67.3128
L51.48 68.367
L52.1 68.3227
L52.72 68.0668
L55.82 66.0578
L56.44 65.9667
L57.06 66.0132
L57.68 66.3239
L58.92 67.315
L60.78 69.0884
L61.4 69.5417
L62.02 69.808
L62.64 69.8161
L63.26 69.5156
L63.88 68.8985
L65.12 66.967
L66.36 65.0193
L66.98 64.4445
L67.6 64.2928
L68.22 64.5937
L68.84 65.2941
L71.32 69.1192
L71.94 69.5618
L72.56 69.6409
L73.18 69.3853
L73.8 68.8683
L76.9 65.5799
L77.52 65.2456
L78.14 65.102
L78.76 65.1627
L79.38 65.4282
L80 65.8797
L80.62 66.4731
L81.24 66.9084
L82.48 68.2426
L83.1 68.6548
L83.72 68.7863
L84.34 68.6641
L84.96 68.3446
L87.44 66.5815
L88.68 66.1614
L89.92 66.1305
L91.16 66.474
L92.4 67.2564
L93.64 68.2481
L94.26 68.5972
L94.88 68.4862
L95.5 68.2276
L96.12 67.6509
L98.6 64.3698
L99.22 64.2736
L99.84 64.7863
L100.46 65.8739
L102.94 71.6293
L103.56 72.121
L104.18 71.9492
L104.8 71.1801
L106.04 68.5917
L106.66 67.2346
L107.9 65.3243
L108.52 64.8236
L109.14 64.6479
L110.38 65.2885
L112.24 66.7034
L112.86 67.2388
L114.1 68.5304
L114.72 69.1057
L115.34 69.924
L115.96 70.3193
L116.58 70.3892
L117.2 69.6854
L117.82 68.7235
L119.06 67.2085
L119.68 67.293
L120.92 66.8374
L121.54 66.8171
L121.54 66.8171" style="fill:none;stroke:#000000;stroke-linecap:square;stroke-width:2;"/>
   </g>
  </g>
  <g id="axes_3">
   <g id="line2d_3">
    <path clip-path="url(#pdffdb5c0e8)" d="
M18 90.5197
L19.24 91.8382
L19.86 92.5217
L20.48 93.0099
L21.1 93.1744
L21.72 92.9469
L22.34 92.3324
L23.58 90.3085
L24.82 88.2484
L25.44 87.5624
L26.06 87.3947
L26.68 87.6841
L27.3 88.3843
L28.54 90.5605
L29.78 92.9242
L30.4 93.6787
L31.02 93.9653
L31.64 93.7352
L32.26 93.115
L33.5 90.7154
L34.74 88.3194
L35.36 87.5086
L36.6 87.1873
L37.22 87.3857
L37.84 87.8174
L39.08 89.0541
L40.32 90.7158
L41.56 91.9542
L42.18 92.1139
L42.8 92.4357
L43.42 92.546
L44.04 92.4097
L44.66 92.0312
L47.14 89.778
L47.76 89.6354
L48.38 89.8193
L49 90.2989
L50.86 92.3001
L51.48 92.6489
L52.1 92.6545
L52.72 92.3014
L54.58 90.2219
L55.2 89.3884
L55.82 88.7506
L56.44 88.3883
L57.06 88.2468
L57.68 88.5928
L58.3 89.2007
L60.78 92.4007
L61.4 92.8575
L62.02 92.9908
L62.64 92.7558
L63.26 92.1549
L64.5 90.1415
L65.74 87.9875
L66.36 87.2814
L66.98 87.0069
L67.6 87.2292
L68.22 87.9337
L68.84 89.0281
L70.7 92.9436
L71.32 93.8436
L71.94 94.3152
L72.56 94.3148
L73.18 93.8664
L73.8 93.0492
L76.9 87.8879
L77.52 87.462
L78.14 87.4019
L78.76 87.7087
L79.38 88.3413
L82.48 92.5632
L83.1 92.819
L83.72 92.5787
L84.34 92.059
L86.82 89.1365
L87.44 88.7928
L88.06 88.7078
L88.68 88.8475
L89.92 89.5445
L92.4 91.2121
L93.64 91.7597
L94.26 91.8118
L95.5 91.1101
L96.74 89.7186
L97.98 88.3447
L98.6 87.6048
L99.22 87.7381
L99.84 88.4255
L100.46 89.6061
L102.32 94.0714
L102.94 95.0134
L103.56 95.3546
L104.18 95.0459
L104.8 94.1535
L106.04 91.3174
L107.28 88.5802
L107.9 87.6138
L108.52 87.0794
L109.14 86.9905
L110.38 88.1735
L113.48 92.2852
L114.1 92.6653
L114.72 92.8458
L115.34 93.335
L115.96 93.2773
L116.58 93.0133
L117.2 91.8277
L117.82 90.9738
L119.06 90.485
L119.68 90.4972
L120.3 90.2083
L120.92 90.0591
L121.54 90.1516
L121.54 90.1516" style="fill:none;stroke:#000000;stroke-linecap:square;stroke-width:2;"/>
   </g>
  </g>
  <g id="axes_4">
   <g id="line2d_4">
    <path clip-path="url(#p0fe9a44d96)" d="
M18 115.232
L18.62 116.075
L19.24 116.906
L19.86 117.538
L20.48 117.796
L21.1 117.562
L21.72 116.812
L22.34 115.626
L24.2 111.386
L24.82 110.499
L25.44 110.304
L26.06 110.58
L26.68 111.363
L27.92 113.817
L29.16 116.114
L29.78 117.052
L30.4 117.387
L31.02 117.212
L31.64 116.578
L32.26 115.642
L34.12 112.319
L34.74 111.463
L35.36 110.862
L36.6 110.736
L37.22 110.894
L37.84 111.256
L39.08 112.473
L40.32 114.444
L41.56 116.013
L42.8 116.274
L43.42 116.093
L44.04 115.551
L45.28 113.726
L45.9 112.756
L46.52 112.001
L47.14 111.627
L47.76 111.728
L48.38 112.311
L49.62 114.449
L50.24 115.597
L50.86 116.494
L51.48 116.963
L52.1 116.91
L52.72 116.348
L53.96 114.432
L55.2 112.188
L55.82 111.494
L56.44 111.203
L57.06 111.198
L57.68 111.663
L58.92 113.164
L60.16 114.682
L60.78 115.228
L61.4 115.554
L62.02 115.616
L62.64 115.391
L63.26 114.873
L63.88 114.091
L66.36 110.391
L66.98 110.092
L67.6 110.31
L68.22 111.071
L68.84 112.304
L70.7 116.95
L71.32 118.04
L71.94 118.588
L72.56 118.528
L73.18 117.887
L73.8 116.777
L76.28 111.204
L76.9 110.365
L77.52 109.959
L78.14 110.016
L78.76 110.515
L79.38 111.392
L81.86 115.997
L82.48 116.71
L83.1 116.903
L83.72 116.367
L84.34 115.562
L86.2 112.228
L86.82 111.471
L87.44 111.13
L88.06 111.234
L88.68 111.728
L89.92 113.356
L91.16 114.843
L91.78 115.263
L92.4 115.416
L93.02 115.316
L93.64 115.002
L94.26 114.521
L95.5 113.193
L96.74 112.146
L97.36 111.845
L97.98 111.771
L98.6 111.549
L99.22 112.005
L99.84 112.786
L101.08 114.993
L102.32 117.082
L102.94 117.681
L103.56 117.828
L104.18 117.485
L104.8 116.682
L106.04 114.135
L107.28 111.269
L107.9 110.224
L108.52 109.635
L109.14 109.572
L109.76 110.194
L110.38 110.994
L112.86 115.332
L113.48 116.079
L114.1 116.394
L114.72 116.391
L115.34 116.582
L116.58 115.74
L117.2 114.497
L117.82 113.815
L119.68 113.647
L120.3 113.784
L120.92 114.05
L121.54 114.531
L121.54 114.531" style="fill:none;stroke:#000000;stroke-linecap:square;stroke-width:2;"/>
   </g>
  </g>
  <g id="axes_5">
   <g id="line2d_5">
    <path clip-path="url(#pcd4454e43c)" d="
M18 140.11
L18.62 140.912
L19.24 141.528
L19.86 141.822
L20.48 141.679
L21.1 141.039
L21.72 139.921
L22.96 136.761
L24.2 133.812
L24.82 132.985
L25.44 133.176
L26.06 133.613
L26.68 134.592
L29.16 140.143
L29.78 141.074
L30.4 141.426
L31.02 141.199
L31.64 140.465
L34.12 135.529
L34.74 134.635
L35.36 134.019
L36.6 133.84
L37.22 134.033
L37.84 134.459
L39.08 135.848
L40.94 138.751
L41.56 139.418
L42.18 139.247
L42.8 139.215
L43.42 138.809
L44.04 138.059
L45.9 134.993
L46.52 134.311
L47.14 134.089
L47.76 134.41
L48.38 135.256
L49.62 137.918
L50.24 139.25
L50.86 140.236
L51.48 140.685
L52.1 140.515
L52.72 139.773
L53.96 137.29
L54.58 136.047
L55.2 135.131
L55.82 134.675
L56.44 134.696
L57.06 134.991
L59.54 137.444
L60.16 137.814
L61.4 138.186
L62.64 138.156
L63.26 137.932
L63.88 137.511
L64.5 136.88
L66.36 134.486
L66.98 134.039
L67.6 134.038
L68.22 134.561
L68.84 135.577
L71.32 140.82
L71.94 141.304
L72.56 141.203
L73.18 140.557
L73.8 139.49
L76.28 134.416
L76.9 133.643
L77.52 133.228
L78.14 133.201
L78.76 133.564
L79.38 134.292
L80.62 136.537
L82.48 139.882
L83.1 140.281
L83.72 139.887
L84.34 139.234
L85.58 137.028
L86.2 135.893
L86.82 135.02
L87.44 134.559
L88.06 134.575
L88.68 135.039
L89.92 136.812
L91.16 138.555
L91.78 139.036
L92.4 139.151
L93.02 138.893
L93.64 138.312
L94.26 137.497
L94.88 136.227
L95.5 135.36
L96.12 134.697
L96.74 134.33
L97.36 134.313
L98.6 134.966
L99.22 135.84
L101.7 140.101
L102.32 140.74
L102.94 141.031
L103.56 140.948
L104.18 140.501
L104.8 139.727
L106.04 137.492
L107.9 133.641
L108.52 132.922
L109.14 132.677
L110.38 133.717
L111.62 135.737
L112.86 137.797
L113.48 138.418
L114.1 138.704
L115.34 138.663
L116.58 137.829
L117.2 136.956
L117.82 136.642
L118.44 136.749
L119.06 136.986
L119.68 136.839
L121.54 139.243
L121.54 139.243" style="fill:none;stroke:#000000;stroke-linecap:square;stroke-width:2;"/>
   </g>
  </g>
  <g id="axes_6">
   <g id="line2d_6">
    <path clip-path="url(#p053b0300e8)" d="
M18 158.643
L18.62 158.992
L19.86 160.371
L21.1 161.702
L21.72 161.983
L22.34 161.885
L22.96 161.395
L23.58 160.572
L25.44 157.502
L26.06 156.859
L26.68 156.666
L27.3 156.975
L27.92 157.759
L28.54 158.916
L30.4 162.98
L31.02 163.755
L31.64 163.978
L32.26 163.604
L32.88 162.571
L34.12 159.783
L35.36 157.153
L35.98 156.284
L36.6 155.89
L37.22 155.966
L37.84 156.448
L39.08 158.181
L40.32 160.447
L41.56 162.222
L42.18 162.534
L42.8 162.992
L43.42 163.234
L44.04 163.226
L44.66 162.953
L45.28 162.43
L47.76 159.515
L48.38 159.177
L49 159.164
L49.62 159.461
L52.1 161.466
L52.72 161.497
L53.96 160.846
L55.82 158.719
L56.44 158.287
L57.06 158.146
L57.68 158.424
L58.3 158.991
L59.54 160.653
L60.78 162.317
L61.4 162.903
L62.02 163.224
L62.64 163.229
L63.26 162.897
L63.88 162.24
L65.12 160.196
L66.36 157.97
L66.98 157.163
L67.6 156.739
L68.22 156.769
L68.84 157.259
L69.46 158.134
L71.32 161.513
L71.94 162.306
L72.56 162.721
L73.18 162.729
L73.8 162.369
L75.04 160.95
L76.28 159.424
L76.9 158.871
L77.52 158.526
L78.14 158.402
L78.76 158.486
L79.38 158.748
L81.24 159.946
L82.48 160.989
L83.1 161.311
L83.72 161.361
L84.34 161.259
L85.58 160.668
L86.82 159.964
L88.06 159.554
L89.3 159.51
L90.54 159.714
L91.78 160.129
L94.26 161.243
L95.5 160.755
L96.12 160.202
L98.6 156.961
L99.22 156.82
L99.84 157.256
L100.46 158.261
L101.7 161.357
L102.32 162.947
L102.94 164.208
L103.56 164.942
L104.18 165.055
L104.8 164.57
L105.42 163.607
L107.9 158.785
L108.52 157.99
L109.14 157.52
L109.76 157.596
L110.38 157.796
L111 158.222
L112.24 159.579
L112.86 160.416
L113.48 161.524
L115.34 163.964
L115.96 164.315
L116.58 164.25
L117.2 163.329
L118.44 161.186
L119.06 160.106
L119.68 160.305
L120.92 158.957
L121.54 158.631
L121.54 158.631" style="fill:none;stroke:#000000;stroke-linecap:square;stroke-width:2;"/>
   </g>
  </g>
  <g id="axes_7">
   <g id="line2d_7">
    <path clip-path="url(#p25c16377a7)" d="
M18 182.362
L18.62 182.833
L20.48 184.889
L21.1 185.245
L21.72 185.227
L22.34 184.806
L22.96 184.031
L24.82 181.003
L25.44 180.384
L26.06 180.156
L26.68 180.402
L27.3 181.094
L28.54 183.371
L29.78 185.908
L30.4 186.692
L31.02 186.992
L31.64 186.764
L32.26 186.11
L33.5 183.617
L34.74 180.966
L35.36 179.999
L35.98 179.495
L36.6 179.334
L37.22 179.58
L37.84 180.166
L39.08 181.969
L40.32 184.25
L40.94 185.168
L41.56 185.881
L43.42 186.39
L44.04 186.129
L44.66 185.609
L45.9 184.065
L47.14 182.633
L47.76 182.281
L48.38 182.286
L49 182.653
L50.24 184.137
L50.86 184.942
L51.48 185.552
L52.1 185.815
L52.72 185.651
L53.96 184.425
L55.82 181.228
L56.44 180.612
L57.06 180.386
L57.68 180.775
L58.3 181.572
L60.78 185.884
L61.4 186.433
L62.02 186.55
L62.64 186.216
L63.26 185.471
L64.5 183.159
L65.74 180.756
L66.36 179.923
L66.98 179.508
L67.6 179.579
L68.22 180.139
L68.84 181.125
L71.32 186.273
L71.94 186.994
L72.56 187.251
L73.18 187.034
L73.8 186.398
L75.04 184.348
L76.28 182.242
L76.9 181.493
L77.52 181.055
L78.14 180.956
L78.76 181.185
L79.38 181.693
L81.86 184.518
L82.48 185.051
L83.1 185.294
L83.72 185.168
L84.34 184.76
L85.58 183.449
L86.82 182.226
L87.44 181.89
L88.06 181.796
L88.68 181.937
L89.3 182.268
L91.16 183.776
L92.4 184.636
L93.02 184.883
L93.64 184.945
L94.26 184.779
L95.5 183.599
L98.6 179.866
L99.22 180.074
L99.84 180.828
L100.46 182.057
L102.32 186.691
L102.94 187.764
L103.56 188.289
L104.18 188.202
L104.8 187.536
L105.42 186.408
L107.9 180.984
L108.52 180.168
L109.14 179.814
L109.76 180.176
L110.38 180.777
L111.62 182.793
L113.48 186.028
L114.1 186.563
L114.72 186.772
L115.34 187.342
L115.96 187.123
L116.58 186.646
L117.82 184.078
L119.06 183.385
L119.68 183.51
L120.3 182.872
L120.92 182.397
L121.54 182.208
L121.54 182.208" style="fill:none;stroke:#000000;stroke-linecap:square;stroke-width:2;"/>
   </g>
  </g>
  <g id="axes_8">
   <g id="line2d_8">
    <path clip-path="url(#pbea2d715e4)" d="
M18 207.197
L19.86 209.236
L20.48 209.579
L21.1 209.505
L21.72 208.961
L22.34 207.987
L24.2 204.145
L24.82 203.285
L25.44 203.05
L26.06 203.295
L26.68 204.068
L27.92 206.617
L29.16 209.15
L29.78 210.079
L30.4 210.41
L31.02 210.209
L31.64 209.537
L32.26 208.592
L34.12 204.979
L34.74 204.031
L35.36 203.377
L35.98 203.258
L36.6 203.283
L37.22 203.611
L37.84 204.193
L39.08 205.848
L40.32 207.948
L40.94 208.728
L41.56 209.251
L42.8 209.166
L43.42 208.853
L44.04 208.279
L46.52 205.324
L47.14 205.049
L47.76 205.152
L48.38 205.641
L49 206.45
L50.86 209.295
L51.48 209.779
L52.1 209.801
L52.72 209.326
L53.96 207.39
L55.2 204.83
L55.82 203.907
L56.44 203.429
L57.06 203.4
L57.68 203.945
L58.3 204.879
L60.16 208.352
L60.78 209.154
L61.4 209.557
L62.02 209.501
L62.64 208.987
L63.26 208.071
L64.5 205.509
L65.74 203.096
L66.36 202.388
L66.98 202.193
L67.6 202.573
L68.22 203.505
L68.84 204.885
L70.7 209.76
L71.32 210.896
L71.94 211.504
L72.56 211.523
L73.18 210.98
L73.8 209.98
L76.28 204.769
L76.9 203.958
L77.52 203.538
L78.14 203.525
L78.76 203.895
L79.38 204.581
L81.86 208.177
L82.48 208.791
L83.1 209.041
L83.72 208.807
L84.34 208.256
L85.58 206.53
L86.82 204.959
L87.44 204.571
L88.06 204.543
L88.68 204.871
L89.3 205.489
L91.16 207.916
L91.78 208.498
L92.4 208.806
L93.02 208.794
L93.64 208.456
L94.26 207.824
L96.12 204.98
L96.74 204.202
L97.36 203.683
L97.98 203.51
L98.6 203.484
L99.22 204.108
L99.84 205.111
L102.32 210.139
L102.94 210.838
L103.56 211.072
L104.18 210.806
L104.8 210.069
L105.42 208.943
L107.9 203.37
L108.52 202.577
L109.14 202.349
L109.76 202.963
L110.38 203.842
L111.62 206.552
L112.24 207.944
L112.86 209.054
L113.48 209.878
L114.1 210.13
L114.72 209.919
L115.34 210.062
L116.58 208.658
L117.2 207.23
L117.82 206.329
L118.44 206.398
L119.06 206.644
L119.68 206.655
L120.3 206.51
L120.92 206.5
L121.54 206.721
L121.54 206.721" style="fill:none;stroke:#000000;stroke-linecap:square;stroke-width:2;"/>
   </g>
  </g>
  <g id="axes_9">
   <g id="line2d_9">
    <path clip-path="url(#p0b4ac3770c)" d="
M18 231.496
L18.62 232.205
L19.24 232.87
L19.86 233.332
L20.48 233.436
L21.1 233.073
L21.72 232.214
L22.34 230.93
L24.2 226.509
L24.82 225.671
L25.44 225.673
L26.06 226.165
L26.68 227.26
L29.16 233.419
L29.78 234.25
L30.4 234.471
L31.02 234.078
L31.64 233.179
L34.12 227.977
L34.74 227.136
L35.36 226.631
L36.6 226.798
L37.22 227.194
L38.46 228.559
L39.7 230.403
L40.32 231.28
L40.94 231.955
L41.56 232.329
L43.42 231.194
L44.66 229.62
L45.9 228.165
L46.52 227.814
L47.14 227.841
L47.76 228.277
L48.38 229.08
L50.86 233.115
L51.48 233.437
L52.1 233.239
L52.72 232.535
L53.96 230.098
L55.2 227.617
L55.82 226.876
L56.44 226.632
L57.06 226.865
L57.68 227.549
L58.92 229.705
L60.16 231.83
L60.78 232.525
L61.4 232.849
L62.02 232.759
L62.64 232.253
L63.26 231.372
L64.5 228.872
L65.74 226.426
L66.36 225.68
L66.98 225.457
L67.6 225.833
L68.22 226.794
L69.46 229.932
L70.7 233.178
L71.32 234.253
L71.94 234.756
L72.56 234.648
L73.18 233.98
L73.8 232.884
L76.28 227.706
L76.9 226.944
L77.52 226.554
L78.14 226.547
L78.76 226.902
L79.38 227.564
L82.48 231.91
L83.1 232.232
L83.72 232.023
L84.34 231.552
L85.58 229.976
L86.82 228.512
L87.44 228.153
L88.06 228.136
L88.68 228.461
L89.3 229.07
L91.16 231.47
L91.78 232.028
L92.4 232.283
L93.02 232.175
L93.64 231.695
L94.26 230.886
L95.5 228.483
L96.12 227.463
L96.74 226.691
L97.36 226.296
L97.98 226.356
L98.6 226.858
L99.22 227.79
L100.46 230.436
L101.7 232.984
L102.32 233.836
L102.94 234.28
L103.56 234.286
L104.18 233.867
L104.8 233.072
L106.04 230.681
L107.9 226.592
L108.52 225.769
L109.14 225.476
L110.38 226.84
L111.62 229.351
L112.24 230.673
L112.86 231.72
L113.48 232.343
L114.1 232.453
L115.34 231.831
L116.58 230.404
L117.2 229.328
L117.82 228.979
L118.44 229.328
L119.06 229.897
L119.68 229.851
L120.92 230.4
L121.54 230.872
L121.54 230.872" style="fill:none;stroke:#000000;stroke-linecap:square;stroke-width:2;"/>
   </g>
  </g>
  <g id="axes_10">
   <g id="line2d_10">
    <path clip-path="url(#p2a88bd9f82)" d="
M18 253.709
L19.86 254.735
L20.48 254.812
L21.1 254.594
L21.72 254.04
L22.34 253.172
L24.2 249.986
L24.82 249.371
L25.44 249.579
L26.06 250.042
L26.68 251.042
L27.92 254.055
L29.16 256.989
L29.78 257.769
L30.4 257.99
L31.02 257.584
L31.64 256.647
L33.5 252.262
L34.12 251.139
L34.74 250.377
L35.36 249.997
L35.98 250.064
L36.6 250.324
L37.22 250.804
L38.46 252.121
L40.94 254.917
L41.56 255.271
L42.18 254.855
L42.8 254.674
L43.42 254.269
L44.66 252.984
L45.9 251.689
L46.52 251.313
L47.14 251.234
L47.76 251.488
L48.38 252.051
L50.86 255.205
L51.48 255.505
L52.1 255.411
L52.72 254.928
L53.34 254.139
L54.58 252.147
L55.2 251.357
L55.82 250.859
L56.44 250.732
L57.06 250.976
L57.68 251.546
L58.92 253.297
L60.16 255.051
L60.78 255.656
L61.4 255.973
L62.02 255.958
L62.64 255.598
L63.26 254.915
L64.5 252.88
L65.74 250.808
L66.36 250.141
L66.98 249.886
L67.6 250.096
L68.22 250.751
L69.46 252.932
L70.7 255.111
L71.32 255.792
L71.94 256.08
L72.56 255.97
L73.18 255.517
L74.42 253.969
L75.66 252.26
L76.28 251.551
L76.9 251.016
L77.52 250.692
L78.14 250.607
L78.76 250.774
L79.38 251.179
L81.24 253.052
L81.86 253.79
L82.48 254.335
L83.1 254.615
L83.72 254.562
L84.34 254.314
L86.82 252.786
L87.44 252.65
L88.06 252.674
L89.3 253.124
L91.78 254.549
L92.4 254.72
L93.02 254.689
L93.64 254.402
L94.26 253.837
L94.88 252.547
L96.12 250.745
L96.74 250.04
L97.36 249.667
L97.98 249.732
L98.6 250.206
L99.22 251.144
L101.7 256.276
L102.32 257.001
L102.94 257.296
L103.56 257.17
L104.18 256.685
L104.8 255.928
L106.04 253.955
L107.9 250.81
L108.52 250.075
L109.14 249.684
L110.38 250.552
L111.62 252.145
L112.24 253.007
L112.86 253.659
L113.48 253.991
L114.1 253.861
L114.72 253.416
L115.96 252.031
L117.2 251.057
L117.82 251.492
L118.44 252.218
L119.06 253.178
L120.3 253.158
L121.54 253.417
L121.54 253.417" style="fill:none;stroke:#000000;stroke-linecap:square;stroke-width:2;"/>
   </g>
  </g>
  <g id="axes_11">
   <g id="line2d_11">
    <path clip-path="url(#p3e21b20e7e)" d="
M18 273.104
L18.62 272.814
L19.24 272.839
L19.86 273.153
L21.1 274.336
L22.34 275.445
L22.96 275.683
L23.58 275.639
L24.2 275.343
L24.82 274.89
L25.44 274.667
L26.06 274.289
L26.68 274.177
L27.3 274.428
L27.92 275.063
L28.54 276.021
L30.4 279.366
L31.02 279.893
L31.64 279.951
L32.26 279.584
L32.88 278.87
L34.12 276.272
L35.36 273.648
L35.98 272.574
L36.6 272.15
L37.22 272.171
L37.84 272.583
L39.08 274.145
L40.32 276.14
L41.56 277.748
L42.18 278.195
L43.42 279.411
L44.04 279.846
L44.66 280.047
L45.28 279.921
L45.9 279.409
L46.52 278.522
L48.38 275.076
L49 274.41
L49.62 274.303
L50.24 274.793
L50.86 275.769
L52.1 278.148
L52.72 278.92
L53.34 279.079
L53.96 278.72
L54.58 277.608
L56.44 273.295
L57.06 272.633
L57.68 272.756
L58.3 273.556
L59.54 276.35
L60.16 277.773
L60.78 278.872
L61.4 279.501
L62.02 279.628
L62.64 279.317
L63.26 278.691
L65.12 276.087
L66.98 273.514
L67.6 272.814
L68.22 272.327
L68.84 272.168
L69.46 272.437
L70.08 273.183
L70.7 274.372
L73.18 280.174
L73.8 280.817
L74.42 280.866
L75.04 280.348
L75.66 279.386
L77.52 275.809
L78.14 275.005
L78.76 274.579
L79.38 274.537
L80 274.826
L81.86 276.511
L82.48 277.057
L83.1 277.405
L83.72 277.481
L84.34 277.313
L85.58 276.453
L86.82 275.445
L87.44 275.111
L88.06 274.977
L88.68 275.069
L89.3 275.376
L90.54 276.451
L91.78 277.66
L92.4 278.121
L93.02 278.392
L93.64 278.418
L94.26 278.164
L98.6 272.394
L99.22 272.366
L99.84 272.816
L100.46 273.698
L101.7 276.251
L102.94 278.706
L103.56 279.519
L104.18 279.952
L104.8 279.998
L105.42 279.701
L106.04 279.133
L107.9 276.709
L109.14 274.999
L109.76 274.477
L110.38 274.177
L111 274.183
L111.62 274.519
L112.24 275.172
L112.86 276.076
L113.48 277.525
L115.34 280.78
L115.96 281.224
L116.58 281.146
L118.44 277.53
L119.06 276.288
L119.68 276.6
L120.92 274.516
L121.54 273.688
L121.54 273.688" style="fill:none;stroke:#000000;stroke-linecap:square;stroke-width:2;"/>
   </g>
  </g>
  <g id="axes_12">
   <g id="line2d_12">
    <path clip-path="url(#paf23cbe904)" d="
M18 294.131
L18.62 293.338
L19.24 292.999
L19.86 293.162
L20.48 293.816
L21.1 294.876
L22.96 298.733
L23.58 299.567
L24.2 299.934
L24.82 299.815
L25.44 299.465
L26.68 297.956
L27.3 297.422
L27.92 297.294
L28.54 297.657
L29.16 298.403
L31.02 301.973
L31.64 302.748
L32.26 303.066
L32.88 302.703
L33.5 302.037
L35.36 299.119
L35.98 297.638
L36.6 297.042
L37.22 296.778
L37.84 296.778
L39.08 297.155
L40.94 297.982
L42.18 299.176
L43.42 301.408
L44.66 303.615
L45.28 304.131
L45.9 304.003
L46.52 303.186
L47.14 301.794
L48.38 298.423
L49 297.153
L49.62 296.555
L50.24 296.745
L50.86 297.651
L52.72 301.783
L53.34 302.496
L53.96 302.884
L54.58 302.294
L55.82 299.828
L56.44 298.585
L57.06 297.845
L57.68 297.622
L58.3 297.858
L59.54 299.114
L60.16 299.759
L60.78 300.231
L61.4 300.494
L62.64 300.598
L65.12 300.617
L65.74 300.355
L66.36 299.796
L66.98 298.92
L68.84 295.576
L69.46 294.936
L70.08 294.874
L70.7 295.469
L71.32 296.673
L73.8 303.298
L74.42 304.176
L75.04 304.457
L75.66 304.171
L76.28 303.433
L78.76 299.309
L79.38 298.658
L80 298.276
L80.62 298.143
L83.1 299.073
L86.2 299.274
L87.44 299.277
L88.68 299.49
L91.16 300.079
L93.64 300.289
L94.26 300.291
L94.88 300.065
L96.12 299.942
L97.36 299.414
L97.98 299.015
L98.6 297.929
L99.22 297.553
L99.84 297.356
L100.46 297.37
L101.08 297.597
L101.7 298.014
L102.94 299.256
L106.04 302.928
L106.66 303.302
L107.28 303.486
L107.9 303.138
L108.52 302.35
L109.14 301.165
L110.38 297.912
L111 296.625
L111.62 295.801
L112.24 295.619
L112.86 296.145
L114.1 299.013
L115.34 302.424
L115.96 303.615
L116.58 304.149
L117.2 304.253
L117.82 302.967
L118.44 301.41
L119.06 299.534
L119.68 299.973
L120.92 296.715
L121.54 295.291
L121.54 295.291" style="fill:none;stroke:#000000;stroke-linecap:square;stroke-width:2;"/>
   </g>
  </g>
  <g id="axes_13">
   <g id="line2d_13">
    <path clip-path="url(#p423fd2dc85)" d="
M18 319.622
L18.62 318.975
L19.24 318.576
L19.86 318.502
L20.48 318.785
L21.1 319.391
L22.96 321.904
L23.58 322.458
L24.2 322.692
L25.44 322.462
L26.68 321.693
L27.3 321.577
L27.92 321.797
L28.54 322.369
L29.16 323.193
L30.4 325.256
L31.02 325.932
L31.64 326.23
L32.26 326.161
L32.88 325.782
L33.5 324.832
L35.98 319.96
L36.6 319.412
L37.22 319.256
L37.84 319.447
L39.08 320.465
L41.56 322.923
L42.18 323.45
L44.66 326.323
L45.28 326.592
L45.9 326.399
L46.52 325.692
L47.14 324.538
L48.38 321.725
L49 320.641
L49.62 320.118
L50.24 320.281
L50.86 321.089
L52.72 324.855
L53.34 325.477
L53.96 325.543
L54.58 324.841
L55.82 322.239
L56.44 320.986
L57.06 320.189
L57.68 320.031
L58.3 320.471
L58.92 321.368
L60.16 323.58
L60.78 324.439
L61.4 324.951
L62.02 325.107
L62.64 324.98
L63.88 324.298
L65.12 323.452
L66.36 322.268
L67.6 320.517
L68.84 318.854
L69.46 318.486
L70.08 318.637
L70.7 319.373
L71.32 320.644
L73.8 326.974
L74.42 327.656
L75.04 327.691
L75.66 327.114
L76.28 326.059
L78.14 322.077
L78.76 321.135
L79.38 320.597
L80 320.487
L80.62 320.763
L81.24 321.304
L83.1 323.451
L83.72 323.894
L84.34 324.051
L84.96 323.926
L85.58 323.559
L88.06 321.608
L88.68 321.487
L89.3 321.613
L89.92 321.97
L91.16 323.142
L92.4 324.367
L93.02 324.784
L93.64 324.976
L94.26 324.898
L96.74 322.163
L98.6 319.542
L99.22 319.3
L99.84 319.465
L100.46 320.019
L101.7 321.923
L102.94 323.991
L103.56 324.782
L104.18 325.326
L104.8 325.615
L105.42 325.67
L106.04 325.529
L107.28 324.94
L108.52 323.558
L110.38 321.076
L111 320.492
L111.62 320.21
L112.24 320.325
L112.86 320.872
L114.72 324.552
L115.34 325.841
L115.96 326.739
L116.58 327.09
L117.2 326.583
L117.82 325.558
L119.06 322.797
L119.68 323.051
L121.54 320.421
L121.54 320.421" style="fill:none;stroke:#000000;stroke-linecap:square;stroke-width:2;"/>
   </g>
  </g>
  <g id="axes_14">
   <g id="line2d_14">
    <path clip-path="url(#p8d16893679)" d="
M18 344.487
L18.62 344.603
L19.24 344.948
L21.72 346.913
L22.34 347.005
L22.96 346.776
L23.58 346.225
L26.06 343.02
L26.68 342.638
L27.3 342.724
L27.92 343.32
L28.54 344.383
L29.16 345.733
L30.4 348.959
L31.02 350.16
L31.64 350.85
L32.26 350.924
L32.88 350.595
L33.5 349.433
L35.36 344.622
L35.98 343.689
L36.6 342.963
L37.22 342.697
L37.84 342.84
L38.46 343.283
L39.08 343.887
L39.7 344.775
L40.94 345.851
L41.56 346.2
L42.18 346.276
L43.42 346.734
L44.66 346.994
L45.9 346.905
L48.38 346.168
L49.62 346.224
L51.48 346.578
L52.1 346.52
L53.34 346.022
L54.58 345.361
L55.2 345.171
L55.82 345.161
L57.06 345.609
L60.16 347.161
L62.64 348.257
L63.26 348.349
L63.88 348.213
L64.5 347.79
L65.12 347.079
L67.6 343.482
L68.22 343.16
L68.84 343.267
L69.46 343.771
L70.7 345.472
L71.32 346.331
L71.94 346.987
L72.56 347.347
L73.18 347.387
L73.8 347.149
L75.04 346.194
L76.28 345.247
L76.9 344.937
L77.52 344.764
L78.14 344.724
L79.38 344.996
L81.24 345.786
L83.1 347.196
L83.72 347.509
L84.34 347.565
L84.96 347.449
L85.58 347.173
L86.82 346.306
L88.06 345.383
L89.3 344.79
L89.92 344.699
L90.54 344.772
L91.16 345.015
L92.4 345.952
L93.64 347.135
L94.26 347.59
L94.88 347.638
L95.5 347.454
L96.12 346.974
L97.36 345.43
L97.98 344.639
L98.6 344.073
L99.22 343.702
L99.84 343.787
L100.46 344.343
L101.08 345.281
L102.32 347.569
L102.94 348.489
L103.56 349.027
L104.18 349.114
L104.8 348.779
L106.04 347.342
L106.66 346.563
L107.9 345.472
L109.14 344.89
L109.76 344.909
L112.24 344.432
L113.48 344.783
L114.1 345.578
L114.72 346.578
L115.34 347.815
L115.96 348.747
L116.58 349.267
L117.2 349.431
L118.44 347.375
L119.06 346.009
L119.68 346.169
L120.92 344.987
L121.54 344.621
L121.54 344.621" style="fill:none;stroke:#000000;stroke-linecap:square;stroke-width:2;"/>
   </g>
  </g>
  <g id="axes_15">
   <g id="line2d_15">
    <path clip-path="url(#pdcf92b45fb)" d="
M18 368.636
L18.62 368.896
L19.86 369.803
L21.1 370.642
L21.72 370.794
L22.34 370.67
L22.96 370.244
L23.58 369.536
L26.06 365.972
L26.68 365.699
L27.3 365.915
L27.92 366.64
L29.16 369.212
L30.4 372.509
L31.02 373.626
L31.64 374.158
L32.26 374.028
L32.88 373.21
L33.5 371.836
L35.36 366.946
L35.98 366.04
L36.6 365.414
L37.22 365.278
L37.84 365.559
L38.46 366.136
L39.08 366.876
L40.32 368.659
L41.56 369.93
L43.42 370.871
L44.04 370.935
L44.66 370.791
L45.28 370.449
L47.14 368.939
L47.76 368.651
L48.38 368.632
L49 368.905
L50.24 370.05
L50.86 370.653
L51.48 371.072
L52.1 371.194
L52.72 370.974
L53.96 369.92
L55.2 368.428
L55.82 367.913
L56.44 367.67
L57.06 367.618
L57.68 368.021
L58.92 369.386
L60.16 370.891
L60.78 371.492
L61.4 371.907
L62.02 372.088
L62.64 371.996
L63.26 371.617
L63.88 370.959
L65.12 369.035
L66.36 367.027
L66.98 366.328
L67.6 365.989
L68.22 366.067
L68.84 366.559
L69.46 367.396
L71.32 370.592
L71.94 371.366
L72.56 371.793
L73.18 371.829
L73.8 371.485
L74.42 370.83
L76.9 367.428
L77.52 366.974
L78.14 366.833
L78.76 367.011
L79.38 367.474
L82.48 370.85
L83.1 371.208
L83.72 371.246
L84.34 371.026
L85.58 370.097
L87.44 368.476
L88.68 367.793
L89.3 367.648
L89.92 367.664
L90.54 367.862
L91.16 368.251
L92.4 369.521
L93.64 370.918
L94.26 371.346
L94.88 371.283
L95.5 370.885
L96.12 370.105
L97.98 367.005
L98.6 366.323
L99.22 366.17
L99.84 366.636
L100.46 367.669
L102.32 372.067
L102.94 373.077
L103.56 373.523
L104.18 373.364
L104.8 372.676
L106.04 370.425
L106.66 369.277
L107.9 367.68
L108.52 367.207
L109.14 366.974
L110.38 367.305
L111.62 367.714
L112.86 368.448
L114.72 370.665
L115.34 371.752
L115.96 372.346
L116.58 372.566
L117.2 371.866
L117.82 370.908
L119.06 369.283
L119.68 369.371
L120.92 368.705
L121.54 368.572
L121.54 368.572" style="fill:none;stroke:#000000;stroke-linecap:square;stroke-width:2;"/>
   </g>
  </g>
  <g id="axes_16">
   <g id="line2d_16">
    <path clip-path="url(#p37ff8ca1e4)" d="
M18 393.567
L19.86 395.282
L20.48 395.632
L21.1 395.704
L21.72 395.439
L22.34 394.83
L22.96 393.925
L25.44 389.593
L26.06 389.198
L26.68 389.276
L27.3 389.827
L27.92 390.788
L29.16 393.27
L29.78 394.88
L30.4 395.962
L31.02 396.587
L31.64 396.646
L32.26 396.224
L32.88 395.177
L34.12 392.235
L35.36 389.41
L35.98 388.611
L36.6 388.089
L37.22 388.013
L37.84 388.344
L38.46 389.009
L39.08 389.919
L40.32 392.395
L41.56 394.508
L42.8 395.564
L43.42 395.7
L44.04 395.421
L44.66 394.745
L45.9 392.634
L46.52 391.561
L47.14 390.754
L47.76 390.384
L48.38 390.541
L49 391.209
L50.24 393.487
L50.86 394.636
L51.48 395.468
L52.1 395.811
L52.72 395.59
L53.96 394.101
L55.2 391.628
L55.82 390.644
L56.44 390.042
L57.06 389.709
L57.68 390.145
L58.3 390.967
L60.78 395.158
L61.4 395.7
L62.02 395.841
L62.64 395.553
L63.26 394.857
L63.88 393.823
L66.36 389.024
L66.98 388.449
L67.6 388.364
L68.22 388.794
L68.84 389.696
L70.08 392.418
L71.32 395.183
L71.94 396.133
L72.56 396.619
L73.18 396.582
L73.8 396.028
L74.42 395.029
L76.9 389.661
L77.52 388.892
L78.14 388.639
L78.76 388.939
L79.38 389.746
L82.48 395.508
L83.1 395.838
L83.72 395.476
L84.34 394.769
L86.82 390.9
L87.44 390.404
L88.06 390.229
L88.68 390.348
L89.3 390.705
L90.54 391.866
L92.4 393.863
L93.02 394.361
L93.64 394.645
L94.26 394.637
L94.88 394.172
L95.5 393.481
L97.98 389.7
L98.6 389.102
L99.22 389.323
L99.84 390.151
L100.46 391.483
L102.32 396.171
L102.94 397.092
L103.56 397.392
L104.18 397.043
L104.8 396.129
L106.04 393.321
L107.28 390.604
L107.9 389.606
L108.52 389.004
L109.14 388.811
L110.38 389.716
L112.86 392.484
L113.48 393.498
L114.1 393.923
L114.72 394.183
L115.34 394.675
L115.96 394.727
L116.58 394.584
L117.2 393.334
L117.82 392.736
L119.68 392.5
L120.92 392.789
L121.54 393.105
L121.54 393.105" style="fill:none;stroke:#000000;stroke-linecap:square;stroke-width:2;"/>
   </g>
  </g>
  <g id="axes_17">
   <g id="line2d_17">
    <path clip-path="url(#pfa29b29c2d)" d="
M18 418.697
L18.62 419.478
L19.24 420.13
L19.86 420.545
L20.48 420.625
L21.1 420.308
L21.72 419.586
L22.34 418.512
L24.82 413.507
L25.44 412.932
L26.06 412.845
L26.68 413.223
L27.3 413.991
L29.78 418.261
L30.4 418.863
L31.02 419.039
L31.64 418.774
L32.26 418.192
L32.88 417.316
L35.36 412.822
L35.98 412.283
L36.6 411.903
L37.22 411.89
L37.84 412.246
L38.46 412.94
L39.08 413.904
L40.94 417.701
L41.56 418.659
L42.8 419.198
L43.42 418.97
L44.04 418.302
L45.28 416.038
L46.52 413.718
L47.14 413.044
L47.76 412.892
L48.38 413.306
L49 414.223
L50.86 418.046
L51.48 418.867
L52.1 419.15
L52.72 418.849
L53.96 417.115
L55.2 414.659
L55.82 413.769
L56.44 413.29
L57.06 413.117
L57.68 413.564
L58.3 414.332
L60.78 417.957
L61.4 418.428
L62.02 418.573
L62.64 418.358
L63.26 417.781
L63.88 416.878
L66.36 412.306
L66.98 411.744
L67.6 411.703
L68.22 412.221
L68.84 413.249
L70.08 416.234
L71.32 419.052
L71.94 419.904
L72.56 420.227
L73.18 419.993
L73.8 419.245
L74.42 418.088
L76.9 412.576
L77.52 411.835
L78.14 411.617
L78.76 411.966
L79.38 412.848
L80.62 415.677
L81.86 418.435
L82.48 419.37
L83.1 419.681
L83.72 419.111
L84.34 418.187
L86.82 413.339
L87.44 412.872
L88.06 412.9
L88.68 413.37
L89.92 415.133
L91.16 416.971
L91.78 417.604
L92.4 417.952
L93.02 417.987
L93.64 417.713
L94.26 417.165
L96.12 414.574
L96.74 413.838
L97.36 413.328
L97.98 413.14
L98.6 413.084
L99.22 413.654
L99.84 414.588
L102.32 419.221
L102.94 419.799
L103.56 419.915
L104.18 419.551
L104.8 418.751
L106.04 416.262
L107.28 413.424
L107.9 412.402
L108.52 411.785
L109.14 411.637
L109.76 412.01
L110.38 412.668
L113.48 417.336
L114.1 417.538
L115.34 417.275
L116.58 416.51
L117.2 415.429
L117.82 415.247
L118.44 415.486
L119.06 415.856
L119.68 415.62
L121.54 417.879
L121.54 417.879" style="fill:none;stroke:#000000;stroke-linecap:square;stroke-width:2;"/>
   </g>
  </g>
  <g id="axes_18">
   <g id="line2d_18">
    <path clip-path="url(#p5a2f587196)" d="
M18 442.289
L18.62 443.029
L19.24 443.584
L19.86 443.859
L20.48 443.776
L21.1 443.296
L21.72 442.433
L22.96 439.92
L24.2 437.391
L24.82 436.535
L25.44 436.355
L26.06 436.403
L26.68 436.865
L27.3 437.652
L29.78 441.515
L30.4 442.035
L31.02 442.179
L31.64 441.935
L32.88 440.484
L35.36 436.314
L36.6 435.612
L37.22 435.702
L37.84 436.158
L38.46 436.922
L39.7 439.067
L40.94 441.134
L41.56 441.78
L42.8 441.566
L43.42 441.109
L44.04 440.359
L46.52 436.731
L47.14 436.375
L47.76 436.458
L48.38 436.988
L49 437.893
L50.86 441.121
L51.48 441.694
L52.1 441.78
L52.72 441.372
L53.96 439.599
L55.2 437.674
L55.82 437.13
L56.44 436.979
L57.06 437.135
L57.68 437.641
L60.16 440.348
L60.78 440.807
L61.4 441.102
L62.02 441.206
L62.64 441.086
L63.26 440.713
L63.88 440.076
L65.12 438.196
L66.36 436.325
L66.98 435.805
L67.6 435.743
L68.22 436.186
L68.84 437.087
L71.32 441.899
L71.94 442.468
L72.56 442.568
L73.18 442.217
L73.8 441.486
L75.04 439.334
L76.28 437.067
L76.9 436.175
L77.52 435.579
L78.14 435.363
L78.76 435.582
L79.38 436.241
L80 437.281
L81.86 441.224
L82.48 442.188
L83.1 442.603
L83.72 442.191
L84.34 441.469
L85.58 439.083
L86.2 437.864
L86.82 436.919
L87.44 436.397
L88.06 436.364
L88.68 436.791
L89.3 437.575
L91.16 440.451
L91.78 441.067
L92.4 441.341
L93.02 441.244
L93.64 440.8
L94.26 440.074
L94.88 438.893
L96.12 437.201
L96.74 436.627
L97.36 436.353
L97.98 436.423
L98.6 436.691
L99.22 437.412
L100.46 439.483
L101.7 441.546
L102.32 442.268
L102.94 442.669
L103.56 442.705
L104.18 442.37
L104.8 441.695
L106.04 439.605
L107.9 436.136
L108.52 435.541
L109.14 435.356
L109.76 435.577
L110.38 436.125
L111.62 437.913
L112.86 439.57
L113.48 440.197
L114.1 440.293
L114.72 440.107
L117.2 438.349
L117.82 438.413
L118.44 438.674
L119.06 439.063
L119.68 438.843
L121.54 441.45
L121.54 441.45" style="fill:none;stroke:#000000;stroke-linecap:square;stroke-width:2;"/>
   </g>
  </g>
  <g id="axes_19">
   <g id="line2d_19">
    <path clip-path="url(#p0259813f7b)" d="
M18 459.695
L18.62 459.93
L19.24 460.51
L21.1 462.929
L21.72 463.419
L22.34 463.546
L22.96 463.273
L23.58 462.637
L26.06 459.153
L26.68 458.761
L27.3 458.826
L27.92 459.368
L28.54 460.336
L29.78 463.134
L31.02 465.655
L31.64 466.337
L32.26 466.398
L32.88 465.99
L33.5 464.995
L34.74 462.027
L35.98 459.152
L36.6 458.278
L37.22 457.885
L37.84 457.973
L38.46 458.474
L39.08 459.277
L40.94 462.569
L41.56 463.496
L43.42 465.075
L44.04 465.276
L44.66 465.213
L45.28 464.87
L45.9 464.271
L48.38 461.191
L49 460.877
L49.62 460.901
L50.24 461.231
L52.1 462.849
L52.72 463.12
L53.34 463.105
L53.96 462.893
L56.44 460.935
L57.06 460.878
L57.68 461.066
L58.3 461.483
L59.54 462.732
L60.78 464.034
L61.4 464.553
L62.02 464.922
L62.64 465.099
L63.26 465.04
L63.88 464.71
L64.5 464.095
L65.12 463.216
L67.6 459.097
L68.22 458.646
L68.84 458.655
L69.46 459.124
L70.08 459.972
L71.94 463.139
L72.56 463.828
L73.18 464.156
L73.8 464.122
L74.42 463.788
L77.52 461.23
L78.14 461.008
L79.38 460.926
L81.24 461.368
L84.34 463.467
L84.96 463.562
L85.58 463.49
L86.82 462.953
L88.68 461.927
L89.92 461.587
L91.16 461.675
L92.4 462.189
L94.26 463.255
L94.88 463.304
L95.5 463.114
L96.12 462.66
L97.36 461.158
L98.6 459.694
L99.22 459.243
L99.84 459.259
L100.46 459.796
L101.08 460.799
L102.94 464.786
L103.56 465.69
L104.18 466.11
L104.8 466.019
L105.42 465.484
L107.28 462.818
L108.52 461.108
L109.14 460.525
L111 460.183
L111.62 460.356
L112.24 460.769
L113.48 462.304
L115.34 465.863
L115.96 466.758
L116.58 467.092
L117.2 466.684
L117.82 465.441
L119.06 462.107
L119.68 462.392
L120.92 460.444
L121.54 459.871
L121.54 459.871" style="fill:none;stroke:#000000;stroke-linecap:square;stroke-width:2;"/>
   </g>
  </g>
  <g id="axes_20">
   <g id="line2d_20">
    <path clip-path="url(#p1887ef8d34)" d="
M18 483.053
L18.62 483.383
L19.24 484.057
L21.1 486.515
L21.72 486.909
L22.34 486.899
L22.96 486.471
L23.58 485.686
L25.44 482.636
L26.06 481.948
L26.68 481.695
L27.3 481.949
L27.92 482.708
L28.54 483.892
L30.4 488.406
L31.02 489.429
L31.64 489.899
L32.26 489.695
L32.88 488.831
L33.5 487.507
L35.36 482.64
L35.98 481.405
L36.6 480.727
L37.22 480.596
L37.84 480.966
L38.46 481.734
L39.08 482.765
L40.32 485.291
L41.56 487.391
L42.8 488.571
L43.42 488.884
L44.04 488.884
L44.66 488.547
L45.28 487.889
L46.52 485.938
L47.14 484.936
L47.76 484.151
L48.38 483.733
L49 483.765
L49.62 484.241
L50.86 486.03
L51.48 486.938
L52.1 487.57
L52.72 487.77
L53.34 487.48
L53.96 487.019
L56.44 483.131
L57.06 482.772
L57.68 483.07
L58.3 483.808
L59.54 486.052
L60.78 488.156
L61.4 488.783
L62.02 489.017
L62.64 488.84
L63.26 488.279
L63.88 487.401
L66.98 482.039
L67.6 481.6
L68.22 481.579
L68.84 481.99
L69.46 482.789
L70.7 485.11
L71.94 487.348
L72.56 488.053
L73.18 488.354
L73.8 488.233
L74.42 487.736
L75.66 486.052
L76.9 484.353
L77.52 483.789
L78.14 483.503
L78.76 483.504
L79.38 483.765
L81.24 485.212
L82.48 486.453
L83.1 486.864
L83.72 487.047
L84.34 486.983
L84.96 486.735
L86.2 485.881
L87.44 484.961
L88.68 484.395
L89.3 484.317
L89.92 484.388
L90.54 484.606
L91.78 485.415
L93.64 486.858
L94.26 487.067
L94.88 486.873
L95.5 486.422
L96.12 485.663
L98.6 481.899
L99.22 481.703
L99.84 482.109
L100.46 483.099
L101.7 486.217
L102.94 489.187
L103.56 490.024
L104.18 490.262
L104.8 489.908
L105.42 489.067
L108.52 483.381
L109.14 482.741
L110.38 482.755
L111 483.058
L111.62 483.598
L112.86 485.264
L114.1 487.682
L115.34 489.807
L115.96 490.326
L116.58 490.326
L117.2 489.216
L118.44 486.69
L119.06 485.377
L119.68 485.632
L120.92 483.683
L121.54 483.153
L121.54 483.153" style="fill:none;stroke:#000000;stroke-linecap:square;stroke-width:2;"/>
   </g>
  </g>
  <g id="text_1">
   <!-- 2 -->
   <defs>
    <path d="
M19.1875 8.29688
L53.6094 8.29688
L53.6094 0
L7.32812 0
L7.32812 8.29688
Q12.9375 14.1094 22.625 23.8906
Q32.3281 33.6875 34.8125 36.5312
Q39.5469 41.8438 41.4219 45.5312
Q43.3125 49.2188 43.3125 52.7812
Q43.3125 58.5938 39.2344 62.25
Q35.1562 65.9219 28.6094 65.9219
Q23.9688 65.9219 18.8125 64.3125
Q13.6719 62.7031 7.8125 59.4219
L7.8125 69.3906
Q13.7656 71.7812 18.9375 73
Q24.125 74.2188 28.4219 74.2188
Q39.75 74.2188 46.4844 68.5469
Q53.2188 62.8906 53.2188 53.4219
Q53.2188 48.9219 51.5312 44.8906
Q49.8594 40.875 45.4062 35.4062
Q44.1875 33.9844 37.6406 27.2188
Q31.1094 20.4531 19.1875 8.29688" id="DejaVuSans-32"/>
   </defs>
   <g transform="translate(69.223125 20.638125)scale(0.12 -0.12)">
    <use xlink:href="#DejaVuSans-32"/>
   </g>
  </g>
 </g>
 <defs>
  <clipPath id="pd4186d8de6">
   <rect height="19.3613445378" width="111.6" x="18.0" y="499.038655462"/>
  </clipPath>
  <clipPath id="p0b4ac3770c">
   <rect height="19.3613445378" width="111.6" x="18.0" y="220.235294118"/>
  </clipPath>
  <clipPath id="pfa29b29c2d">
   <rect height="19.3613445378" width="111.6" x="18.0" y="406.104201681"/>
  </clipPath>
  <clipPath id="paf23cbe904">
   <rect height="19.3613445378" width="111.6" x="18.0" y="289.936134454"/>
  </clipPath>
  <clipPath id="p423fd2dc85">
   <rect height="19.3613445378" width="111.6" x="18.0" y="313.169747899"/>
  </clipPath>
  <clipPath id="p2a88bd9f82">
   <rect height="19.3613445378" width="111.6" x="18.0" y="243.468907563"/>
  </clipPath>
  <clipPath id="pba91d7df7c">
   <rect height="19.3613445378" width="111.6" x="18.0" y="57.6"/>
  </clipPath>
  <clipPath id="p25c16377a7">
   <rect height="19.3613445378" width="111.6" x="18.0" y="173.768067227"/>
  </clipPath>
  <clipPath id="p0fe9a44d96">
   <rect height="19.3613445378" width="111.6" x="18.0" y="104.067226891"/>
  </clipPath>
  <clipPath id="pbea2d715e4">
   <rect height="19.3613445378" width="111.6" x="18.0" y="197.001680672"/>
  </clipPath>
  <clipPath id="pdcf92b45fb">
   <rect height="19.3613445378" width="111.6" x="18.0" y="359.63697479"/>
  </clipPath>
  <clipPath id="p0259813f7b">
   <rect height="19.3613445378" width="111.6" x="18.0" y="452.571428571"/>
  </clipPath>
  <clipPath id="p053b0300e8">
   <rect height="19.3613445378" width="111.6" x="18.0" y="150.534453782"/>
  </clipPath>
  <clipPath id="p1887ef8d34">
   <rect height="19.3613445378" width="111.6" x="18.0" y="475.805042017"/>
  </clipPath>
  <clipPath id="pdffdb5c0e8">
   <rect height="19.3613445378" width="111.6" x="18.0" y="80.8336134454"/>
  </clipPath>
  <clipPath id="p37ff8ca1e4">
   <rect height="19.3613445378" width="111.6" x="18.0" y="382.870588235"/>
  </clipPath>
  <clipPath id="p3e21b20e7e">
   <rect height="19.3613445378" width="111.6" x="18.0" y="266.702521008"/>
  </clipPath>
  <clipPath id="p8d16893679">
   <rect height="19.3613445378" width="111.6" x="18.0" y="336.403361345"/>
  </clipPath>
  <clipPath id="p5a2f587196">
   <rect height="19.3613445378" width="111.6" x="18.0" y="429.337815126"/>
  </clipPath>
  <clipPath id="pcd4454e43c">
   <rect height="19.3613445378" width="111.6" x="18.0" y="127.300840336"/>
  </clipPath>
 </defs>
</svg>
