<?xml version="1.0" encoding="utf-8" standalone="no"?>
<!DOCTYPE svg PUBLIC "-//W3C//DTD SVG 1.1//EN"
  "http://www.w3.org/Graphics/SVG/1.1/DTD/svg11.dtd">
<!-- Created with matplotlib (http://matplotlib.org/) -->
<svg height="576pt" version="1.1" viewBox="0 0 144 576" width="144pt" xmlns="http://www.w3.org/2000/svg" xmlns:xlink="http://www.w3.org/1999/xlink">
 <defs>
  <style type="text/css">
*{stroke-linecap:butt;stroke-linejoin:round;}
  </style>
 </defs>
 <g id="figure_1">
  <g id="patch_1">
   <path d="
M0 576
L144 576
L144 0
L0 0
z
" style="fill:#ffffff;"/>
  </g>
  <g id="axes_1">
   <g id="line2d_1">
    <path clip-path="url(#pd4186d8de6)" d="
M18 511.384
L18.62 511.443
L19.24 511.22
L19.86 510.764
L22.96 507.847
L23.58 507.615
L24.2 507.549
L25.44 507.708
L26.68 508.038
L29.16 508.184
L29.78 508.521
L31.02 509.819
L31.64 510.586
L33.5 511.312
L34.12 511.153
L34.74 510.612
L35.36 509.764
L35.98 508.392
L36.6 507.513
L37.22 507.066
L37.84 507.213
L38.46 507.981
L40.94 512.815
L41.56 513.024
L42.18 512.74
L42.8 511.403
L45.28 504.083
L45.9 503.307
L46.52 503.252
L47.14 503.82
L48.38 505.97
L49.62 507.943
L50.24 508.517
L50.86 508.81
L52.1 508.875
L53.34 508.75
L53.96 508.291
L55.2 508.139
L56.44 507.554
L57.06 507.248
L57.68 507.17
L58.3 507.441
L58.92 508.128
L59.54 509.202
L61.4 512.968
L62.02 513.56
L62.64 513.482
L63.26 512.707
L63.88 511.36
L65.12 508.07
L65.74 506.803
L66.36 506.153
L66.98 506.225
L67.6 506.949
L69.46 510.355
L70.08 510.856
L70.7 510.729
L71.32 510.024
L73.18 506.921
L73.8 506.515
L74.42 506.69
L75.04 507.379
L76.9 510.188
L77.52 510.538
L78.14 510.401
L78.76 509.862
L80 508.389
L80.62 507.89
L81.24 508.59
L83.1 509.397
L83.72 508.863
L84.34 508.825
L84.96 508.494
L86.82 506.813
L87.44 506.532
L88.06 506.549
L88.68 506.846
L91.78 509.232
L94.26 510.477
L94.88 510.477
L95.5 510.618
L96.12 510.584
L96.74 510.313
L97.36 509.807
L99.22 507.86
L99.84 507.637
L100.46 507.778
L101.08 508.231
L102.32 509.471
L102.94 509.887
L103.56 509.983
L104.18 509.731
L105.42 508.558
L106.04 507.976
L106.66 507.62
L107.28 507.575
L107.9 507.758
L109.14 508.58
L109.76 509.198
L110.38 509.276
L111 508.999
L111.62 508.39
L112.86 506.674
L114.1 505.884
L115.34 505.796
L115.96 506.115
L116.58 506.594
L117.2 506.549
L117.82 507.657
L119.06 508.84
L119.68 508.631
L120.92 510.404
L121.54 511.029
L121.54 511.029" style="fill:none;stroke:#000000;stroke-linecap:square;stroke-width:2;"/>
   </g>
  </g>
  <g id="axes_2">
   <g id="line2d_2">
    <path clip-path="url(#pba91d7df7c)" d="
M18 67.1508
L19.86 66.932
L22.96 66.1972
L24.2 66.3346
L27.3 67.2606
L29.16 67.3911
L29.78 67.5303
L31.02 68.2046
L31.64 68.6345
L32.26 68.6739
L33.5 68.9134
L34.12 68.7608
L34.74 68.3518
L35.36 67.7221
L35.98 66.7943
L36.6 66.1253
L37.22 65.721
L37.84 65.7181
L38.46 66.1782
L39.08 67.0652
L40.94 70.5035
L41.56 71.2192
L42.18 71.2171
L42.8 70.5926
L43.42 69.3742
L45.9 63.0497
L46.52 62.3373
L47.14 62.2376
L47.76 62.699
L48.38 63.5823
L50.24 66.8821
L50.86 67.682
L51.48 68.205
L52.1 68.4524
L52.72 68.4533
L53.34 68.2478
L53.96 67.5564
L55.2 66.7347
L57.06 65.2855
L57.68 65.2355
L58.3 65.5741
L58.92 66.3312
L60.16 68.8082
L61.4 71.3262
L62.02 72.0238
L62.64 72.121
L63.26 71.5814
L63.88 70.497
L65.74 66.333
L66.36 65.5257
L66.98 65.2858
L67.6 65.5929
L68.84 67.1696
L69.46 67.9449
L70.08 68.4072
L70.7 68.4342
L71.32 68.0276
L73.8 65.3
L74.42 65.2473
L75.04 65.576
L76.28 66.9049
L76.9 67.5706
L77.52 68.0461
L78.14 68.27
L78.76 68.2582
L80.62 67.6617
L81.24 68.2908
L81.86 68.3392
L82.48 68.2342
L83.1 67.9097
L83.72 67.0325
L86.2 65.6099
L86.82 65.559
L87.44 65.7318
L89.92 67.1623
L91.16 67.2865
L92.4 67.3952
L93.02 67.6909
L94.88 69.0637
L95.5 69.3836
L96.12 69.3642
L96.74 68.9271
L97.36 68.1146
L98.6 66.0214
L99.22 65.3404
L99.84 65.2071
L100.46 65.6817
L101.08 66.6621
L102.32 69.0964
L102.94 69.9265
L103.56 70.1877
L104.18 69.827
L104.8 68.9592
L106.04 66.7402
L106.66 65.9603
L107.28 65.5109
L107.9 65.6035
L109.14 66.625
L109.76 67.4235
L110.38 67.5229
L111 67.1739
L111.62 66.433
L112.86 64.5638
L113.48 64.1853
L114.1 64.05
L115.34 64.7343
L116.58 66.405
L117.2 66.7452
L117.82 67.4354
L118.44 67.4957
L119.68 67.3177
L121.54 67.1816
L121.54 67.1816" style="fill:none;stroke:#000000;stroke-linecap:square;stroke-width:2;"/>
   </g>
  </g>
  <g id="axes_3">
   <g id="line2d_3">
    <path clip-path="url(#pdffdb5c0e8)" d="
M18 95.3546
L18.62 95.2932
L19.24 94.7621
L21.72 91.5044
L22.34 91.066
L22.96 90.8212
L24.82 90.4818
L25.44 90.1913
L27.3 89.7276
L27.92 89.6893
L29.16 89.7446
L31.02 91.1233
L31.64 91.4469
L33.5 91.1338
L35.98 89.9963
L36.6 89.9706
L37.22 90.1965
L37.84 90.6739
L39.7 92.6813
L40.32 93.0534
L40.94 93.0856
L41.56 92.7234
L42.18 92.2252
L43.42 89.9233
L44.66 87.7881
L45.28 87.2245
L45.9 87.1152
L46.52 87.44
L47.14 88.0975
L49 90.4742
L49.62 90.9379
L50.24 91.1356
L50.86 91.0997
L52.1 90.6303
L54.58 89.5549
L56.44 89.2041
L57.68 89.3058
L58.3 89.6242
L58.92 90.1739
L61.4 93.0536
L62.02 93.248
L62.64 93.0305
L63.26 92.4335
L65.12 89.9
L65.74 89.459
L66.36 89.4383
L66.98 89.8227
L68.84 91.8445
L69.46 92.1272
L70.08 91.9914
L70.7 91.4585
L72.56 89.1214
L73.18 88.7799
L73.8 88.8674
L74.42 89.3509
L76.28 91.5274
L76.9 91.8485
L77.52 91.7843
L78.14 91.3759
L80 89.6223
L80.62 89.4203
L81.24 90.0051
L82.48 90.9456
L83.1 91.4025
L84.34 91.5831
L84.96 91.4097
L85.58 90.985
L87.44 89.3604
L88.06 89.0936
L88.68 89.0671
L89.3 89.2637
L90.54 90.0669
L91.78 90.9006
L93.02 91.3779
L94.26 91.4855
L96.12 91.0228
L97.98 90.4447
L98.6 90.4372
L99.84 89.9943
L101.08 89.8056
L102.32 89.9857
L104.8 90.6856
L106.04 90.6463
L108.52 90.1734
L109.14 90.155
L110.38 90.6306
L111.62 90.8815
L112.24 90.7831
L113.48 90.139
L115.96 87.7193
L117.2 87.4103
L119.06 90.6114
L119.68 90.3485
L120.92 93.744
L121.54 94.8396
L121.54 94.8396" style="fill:none;stroke:#000000;stroke-linecap:square;stroke-width:2;"/>
   </g>
  </g>
  <g id="axes_4">
   <g id="line2d_4">
    <path clip-path="url(#p0fe9a44d96)" d="
M18 117.556
L18.62 117.672
L19.24 117.437
L19.86 116.938
L22.34 114.38
L23.58 113.537
L25.44 112.565
L26.68 112.206
L27.3 112.16
L27.92 112.283
L29.16 112.92
L31.02 115.544
L31.64 116.196
L32.88 115.904
L33.5 115.424
L34.74 113.78
L35.36 112.921
L35.98 112.254
L36.6 111.93
L37.22 112.122
L37.84 112.849
L38.46 114.015
L39.7 116.602
L40.32 117.631
L40.94 118.181
L41.56 118.098
L42.18 117.454
L42.8 116.032
L44.66 110.701
L45.28 109.46
L45.9 108.788
L46.52 108.713
L47.14 109.158
L48.38 110.967
L49.62 112.818
L50.24 113.45
L50.86 113.836
L51.48 113.994
L52.1 113.969
L53.34 113.546
L53.96 112.925
L55.82 112.102
L56.44 111.943
L57.06 111.936
L57.68 112.255
L58.3 112.922
L58.92 113.919
L60.78 117.594
L61.4 118.366
L62.02 118.588
L62.64 118.179
L63.26 117.184
L65.12 112.854
L65.74 111.929
L66.36 111.629
L66.98 111.981
L67.6 112.85
L68.84 115.026
L69.46 115.708
L70.08 115.827
L70.7 115.345
L71.94 113.244
L72.56 112.209
L73.18 111.574
L73.8 111.508
L74.42 112.017
L76.28 114.957
L76.9 115.499
L77.52 115.533
L78.14 115.094
L80 112.957
L80.62 112.715
L81.24 113.775
L82.48 114.791
L83.1 115.065
L83.72 114.599
L84.34 114.418
L84.96 113.885
L86.82 111.664
L87.44 111.275
L88.06 111.203
L88.68 111.412
L89.92 112.278
L93.64 115.204
L94.26 115.847
L95.5 116.313
L96.12 116.23
L96.74 115.798
L97.36 115.046
L99.22 112.34
L99.84 111.746
L100.46 111.628
L101.08 111.991
L101.7 112.723
L102.94 114.491
L103.56 115.101
L104.18 115.336
L104.8 115.177
L105.42 114.706
L106.66 113.489
L107.9 112.896
L108.52 112.926
L109.14 113.136
L109.76 113.792
L110.38 114.02
L111 113.991
L111.62 113.646
L112.24 113.012
L112.86 112.19
L113.48 111.745
L114.1 111.061
L115.34 110.243
L115.96 110.26
L116.58 110.583
L117.2 110.77
L117.82 112.026
L119.06 113.881
L119.68 113.629
L120.92 116.158
L121.54 117.046
L121.54 117.046" style="fill:none;stroke:#000000;stroke-linecap:square;stroke-width:2;"/>
   </g>
  </g>
  <g id="axes_5">
   <g id="line2d_5">
    <path clip-path="url(#pcd4454e43c)" d="
M18 137.614
L19.24 137.52
L20.48 137.147
L22.96 136.251
L24.2 136.025
L24.82 135.981
L27.92 136.568
L29.16 137.188
L30.4 138.204
L31.64 138.931
L32.88 138.595
L33.5 138.16
L34.74 136.834
L35.98 135.536
L36.6 135.168
L37.22 135.149
L37.84 135.53
L38.46 136.298
L40.94 140.588
L41.56 141.206
L42.18 141.006
L42.8 140.334
L43.42 139.158
L45.9 133.244
L46.52 132.489
L47.14 132.257
L47.76 132.517
L48.38 133.168
L50.86 136.682
L51.48 137.188
L52.1 137.44
L52.72 137.452
L53.34 137.259
L53.96 136.653
L55.82 135.626
L57.06 135.306
L57.68 135.599
L58.3 136.236
L58.92 137.189
L60.78 140.723
L61.4 141.514
L62.02 141.822
L62.64 141.57
L63.26 140.787
L64.5 138.25
L65.12 136.966
L65.74 135.99
L66.36 135.473
L66.98 135.455
L67.6 135.854
L68.84 137.125
L69.46 137.553
L70.08 137.629
L70.7 137.324
L73.18 135.036
L73.8 135.071
L74.42 135.483
L76.9 138.111
L77.52 138.281
L78.14 138.186
L80 137.431
L80.62 137.359
L81.24 138.234
L81.86 138.353
L82.48 138.246
L83.1 137.832
L83.72 136.884
L86.2 134.743
L86.82 134.645
L87.44 134.815
L89.92 136.223
L91.78 136.59
L92.4 136.951
L93.02 137.572
L94.26 139.353
L95.5 140.149
L96.12 140.02
L96.74 139.329
L97.36 138.151
L98.6 135.315
L99.22 134.135
L99.84 133.6
L100.46 133.834
L101.08 134.78
L102.94 139.096
L103.56 139.888
L104.18 139.994
L104.8 139.444
L107.28 135.593
L107.9 135.424
L108.52 135.721
L109.14 136.295
L109.76 137.293
L110.38 137.673
L111 137.627
L111.62 137.13
L112.86 135.366
L114.1 134.415
L115.34 134.385
L117.82 137.016
L118.44 137.107
L119.68 137.014
L121.54 137.543
L121.54 137.543" style="fill:none;stroke:#000000;stroke-linecap:square;stroke-width:2;"/>
   </g>
  </g>
  <g id="axes_6">
   <g id="line2d_6">
    <path clip-path="url(#p053b0300e8)" d="
M18 157.797
L18.62 156.981
L19.24 156.254
L19.86 155.751
L20.48 155.592
L21.1 155.847
L21.72 156.514
L22.96 158.698
L24.2 160.913
L24.82 161.632
L25.44 162.011
L26.06 162.034
L26.68 161.754
L28.54 160.396
L29.16 160.177
L30.4 160.194
L31.64 159.986
L32.88 159.637
L34.12 159.068
L34.74 159.051
L35.36 159.309
L36.6 160.394
L37.84 161.54
L38.46 161.848
L39.08 161.865
L39.7 161.73
L41.56 160.265
L42.18 159.712
L42.8 159.66
L43.42 159.87
L45.28 161.087
L45.9 161.259
L46.52 161.177
L47.14 160.853
L49 159.405
L49.62 159.157
L50.24 159.142
L50.86 159.343
L52.72 160.332
L53.96 160.499
L54.58 160.27
L56.44 159.255
L57.06 159.248
L57.68 159.509
L58.92 160.588
L60.16 161.709
L60.78 162.006
L61.4 162.049
L62.02 161.853
L64.5 160.355
L65.74 160.156
L66.98 160.067
L67.6 159.851
L68.22 159.463
L70.08 157.873
L70.7 157.605
L71.32 157.655
L71.94 158.055
L72.56 158.758
L74.42 161.321
L75.04 161.815
L75.66 161.967
L76.28 161.78
L76.9 161.323
L78.76 159.471
L79.38 159.062
L80 158.877
L80.62 158.941
L81.24 159.241
L81.86 159.689
L83.1 160.968
L83.72 161.909
L84.34 162.476
L84.96 162.774
L85.58 162.719
L86.2 162.283
L86.82 161.511
L88.68 158.702
L89.3 158.245
L89.92 158.259
L90.54 158.745
L91.78 160.591
L92.4 161.513
L93.02 162.137
L93.64 162.32
L94.26 162.033
L94.88 161.556
L96.74 159.059
L97.36 158.571
L97.98 158.414
L99.84 159.751
L100.46 160.039
L101.08 160.096
L101.7 159.926
L103.56 159.09
L104.18 159.135
L104.8 159.467
L106.04 160.774
L106.66 161.488
L107.28 162.391
L107.9 162.48
L108.52 162.177
L109.76 160.886
L111 159.321
L111.62 158.873
L112.24 158.836
L112.86 159.258
L113.48 159.942
L115.34 163.921
L115.96 164.783
L116.58 165.055
L117.82 163.09
L119.06 160.094
L119.68 160.352
L120.92 159.27
L121.54 158.583
L121.54 158.583" style="fill:none;stroke:#000000;stroke-linecap:square;stroke-width:2;"/>
   </g>
  </g>
  <g id="axes_7">
   <g id="line2d_7">
    <path clip-path="url(#p25c16377a7)" d="
M18 184.25
L18.62 184.27
L19.24 184.202
L20.48 183.86
L22.96 183.06
L24.2 182.955
L27.3 183.026
L29.16 182.664
L29.78 182.887
L30.4 183.369
L31.64 184.742
L32.26 185.004
L33.5 185.7
L34.12 185.627
L34.74 185.158
L35.36 184.364
L35.98 182.908
L36.6 182.082
L37.22 181.703
L37.84 181.948
L38.46 182.849
L40.32 187.142
L40.94 188.098
L41.56 188.289
L42.18 187.862
L42.8 186.246
L44.66 179.475
L45.28 177.942
L45.9 177.275
L46.52 177.525
L47.14 178.562
L49.62 184.537
L50.24 185.168
L50.86 185.284
L51.48 184.996
L53.34 183.261
L53.96 182.534
L55.2 181.932
L56.44 181.514
L57.06 181.487
L57.68 181.599
L58.3 181.986
L58.92 182.688
L60.16 184.85
L61.4 186.98
L62.02 187.514
L62.64 187.486
L63.26 186.866
L63.88 185.75
L65.12 182.943
L65.74 181.828
L66.36 181.232
L66.98 181.267
L67.6 181.898
L69.46 185.16
L70.08 185.753
L70.7 185.768
L71.32 185.204
L73.8 181.41
L74.42 181.329
L75.04 181.797
L76.28 183.706
L76.9 184.619
L77.52 185.173
L78.14 185.238
L78.76 184.823
L80.62 182.471
L81.24 182.769
L81.86 182.789
L83.1 183.396
L83.72 183.314
L84.34 183.58
L84.96 183.511
L85.58 183.097
L87.44 181.084
L88.06 180.756
L88.68 180.794
L89.3 181.184
L90.54 182.598
L91.78 184.015
L93.02 184.967
L94.26 185.665
L96.12 186.054
L96.74 185.891
L97.36 185.442
L98.6 183.894
L99.22 183.073
L99.84 182.5
L100.46 182.323
L101.08 182.592
L101.7 183.236
L102.94 184.865
L103.56 185.364
L104.18 185.406
L104.8 184.947
L105.42 184.08
L106.66 181.996
L107.28 181.299
L107.9 180.905
L108.52 180.988
L109.14 181.435
L109.76 182.414
L110.38 183.033
L111 183.387
L111.62 183.372
L112.24 183.005
L112.86 182.401
L113.48 182.146
L114.1 181.569
L115.34 180.824
L115.96 180.891
L116.58 181.185
L117.2 181.763
L117.82 182.644
L119.06 183.532
L119.68 183.41
L120.92 183.949
L121.54 184.14
L121.54 184.14" style="fill:none;stroke:#000000;stroke-linecap:square;stroke-width:2;"/>
   </g>
  </g>
  <g id="axes_8">
   <g id="line2d_8">
    <path clip-path="url(#pbea2d715e4)" d="
M18 211.523
L18.62 211.516
L19.24 211.052
L21.72 208.095
L22.34 207.743
L22.96 207.597
L24.82 207.589
L26.68 207.052
L28.54 206.238
L29.16 206.023
L31.64 207.147
L32.26 207.022
L32.88 207.138
L33.5 207.096
L34.12 206.897
L35.98 205.947
L36.6 205.799
L37.22 205.892
L37.84 206.265
L40.32 208.663
L40.94 208.87
L42.18 208.415
L43.42 206.118
L44.04 204.881
L44.66 203.894
L45.28 203.341
L45.9 203.319
L46.52 203.817
L47.14 204.715
L48.38 206.908
L49 207.775
L49.62 208.284
L50.24 208.385
L50.86 208.117
L52.1 206.953
L53.34 205.835
L53.96 205.398
L54.58 205.219
L55.82 205.202
L57.06 205.42
L57.68 205.587
L58.3 205.872
L58.92 206.304
L60.16 207.549
L61.4 208.742
L62.02 209.024
L62.64 208.98
L63.26 208.605
L64.5 207.201
L65.12 206.477
L65.74 205.954
L66.36 205.741
L66.98 205.865
L67.6 206.264
L68.84 207.308
L69.46 207.627
L70.08 207.655
L70.7 207.374
L73.18 205.381
L73.8 205.383
L74.42 205.711
L76.9 207.946
L77.52 208.016
L78.14 207.765
L79.38 206.653
L80 206.086
L80.62 205.704
L81.24 206.088
L81.86 206.236
L83.72 207.095
L84.34 207.377
L84.96 207.413
L85.58 207.192
L86.82 206.243
L88.06 205.39
L88.68 205.253
L89.3 205.357
L89.92 205.672
L92.4 207.436
L93.64 207.779
L94.26 207.803
L95.5 207.558
L97.36 206.931
L97.98 206.673
L98.6 206.698
L99.84 205.988
L100.46 205.748
L101.08 205.669
L101.7 205.785
L102.94 206.498
L104.18 207.308
L104.8 207.508
L105.42 207.495
L106.04 207.277
L108.52 205.956
L109.14 205.881
L111.62 206.796
L112.24 206.785
L113.48 206.287
L115.96 204.192
L116.58 204.064
L117.2 204.261
L119.06 206.76
L119.68 206.46
L120.92 209.854
L121.54 210.97
L121.54 210.97" style="fill:none;stroke:#000000;stroke-linecap:square;stroke-width:2;"/>
   </g>
  </g>
  <g id="axes_9">
   <g id="line2d_9">
    <path clip-path="url(#p0b4ac3770c)" d="
M18 234.011
L18.62 234.104
L19.24 233.817
L20.48 232.578
L21.72 231.303
L22.34 230.86
L23.58 230.378
L24.82 230.094
L25.44 229.833
L26.68 229.504
L27.92 229.118
L29.16 229.079
L30.4 230.576
L31.64 232.178
L32.26 232.114
L32.88 232.165
L33.5 231.874
L34.12 231.195
L35.36 229.153
L35.98 228.023
L36.6 227.42
L37.22 227.427
L37.84 228.127
L38.46 229.45
L39.08 231.175
L40.32 233.898
L40.94 234.742
L41.56 234.756
L42.18 234.088
L42.8 232.239
L44.66 225.338
L45.28 223.906
L45.9 223.357
L46.52 223.718
L47.14 224.848
L49.62 231.169
L50.24 231.891
L50.86 232.069
L51.48 231.787
L52.1 231.186
L54.58 228.28
L55.2 227.898
L55.82 227.694
L56.44 227.674
L57.06 227.925
L57.68 228.354
L58.3 229.047
L59.54 231.111
L60.78 233.365
L61.4 234.137
L62.02 234.443
L62.64 234.185
L63.26 233.368
L64.5 230.638
L65.12 229.224
L65.74 228.148
L66.36 227.616
L66.98 227.711
L67.6 228.368
L69.46 231.316
L70.08 231.696
L70.7 231.499
L71.32 230.782
L72.56 228.69
L73.18 227.909
L73.8 227.631
L74.42 227.944
L75.04 228.771
L76.28 231.014
L76.9 231.845
L77.52 232.183
L78.14 231.968
L78.76 231.292
L80 229.471
L80.62 228.841
L81.24 229.541
L81.86 229.733
L83.1 230.532
L83.72 230.499
L84.34 230.673
L84.96 230.432
L85.58 229.805
L87.44 227.253
L88.06 226.818
L88.68 226.781
L89.3 227.123
L89.92 227.754
L92.4 230.861
L93.64 232.025
L94.26 232.507
L95.5 232.783
L96.12 232.674
L96.74 232.279
L97.36 231.588
L99.84 228.034
L100.46 227.673
L101.08 227.837
L101.7 228.486
L103.56 231.43
L104.18 231.941
L104.8 231.953
L105.42 231.486
L107.28 229.088
L107.9 228.521
L108.52 228.337
L109.14 228.502
L109.76 229.168
L110.38 229.648
L111 229.931
L111.62 229.882
L112.24 229.467
L112.86 228.76
L113.48 228.348
L114.72 226.764
L115.34 226.191
L115.96 226.041
L116.58 226.265
L117.2 227.051
L118.44 229.091
L119.06 230.029
L119.68 229.736
L120.92 232.519
L121.54 233.478
L121.54 233.478" style="fill:none;stroke:#000000;stroke-linecap:square;stroke-width:2;"/>
   </g>
  </g>
  <g id="axes_10">
   <g id="line2d_10">
    <path clip-path="url(#p2a88bd9f82)" d="
M18 252.964
L24.2 252.309
L25.44 252.321
L27.92 252.943
L28.54 253.202
L29.16 253.325
L30.4 254.468
L31.64 255.402
L32.26 255.269
L32.88 255.267
L33.5 254.942
L34.12 254.352
L35.36 252.663
L35.98 251.722
L36.6 251.162
L37.22 251.029
L37.84 251.416
L38.46 252.314
L40.94 257.229
L41.56 257.744
L42.18 257.344
L42.8 256.211
L44.04 252.497
L45.28 248.854
L45.9 247.772
L46.52 247.386
L47.14 247.692
L47.76 248.565
L50.24 253.565
L50.86 254.317
L51.48 254.723
L52.1 254.81
L52.72 254.627
L53.34 254.235
L56.44 251.263
L57.06 251.039
L57.68 251.153
L58.3 251.669
L58.92 252.579
L61.4 257.479
L62.02 257.99
L62.64 257.888
L63.26 257.173
L63.88 255.963
L65.12 253.006
L65.74 251.81
L66.36 251.1
L66.98 250.964
L67.6 251.357
L69.46 253.687
L70.08 254.051
L70.7 253.968
L71.32 253.474
L73.18 251.359
L73.8 251.151
L74.42 251.385
L75.04 252.008
L76.9 254.431
L77.52 254.807
L78.14 254.822
L78.76 254.537
L80.62 253.273
L81.24 253.839
L82.48 253.812
L83.1 253.642
L83.72 253.097
L84.34 252.776
L85.58 251.664
L86.82 250.649
L87.44 250.457
L88.06 250.535
L88.68 250.851
L89.92 251.884
L93.64 255.339
L94.26 255.961
L95.5 256.388
L96.12 256.183
L96.74 255.545
L97.36 254.517
L98.6 252.06
L99.22 251.043
L99.84 250.54
L100.46 250.673
L101.08 251.417
L102.94 255.063
L103.56 255.738
L104.18 255.784
L104.8 255.205
L107.28 251.257
L107.9 251.026
L108.52 251.314
L109.14 251.96
L109.76 253.103
L110.38 253.724
L111 253.944
L111.62 253.695
L112.24 253.058
L112.86 252.233
L114.1 251.176
L115.34 250.793
L116.58 251.768
L117.2 252.721
L117.82 253.202
L118.44 253.261
L119.06 253.165
L120.3 253.146
L121.54 253.029
L121.54 253.029" style="fill:none;stroke:#000000;stroke-linecap:square;stroke-width:2;"/>
   </g>
  </g>
  <g id="axes_11">
   <g id="line2d_11">
    <path clip-path="url(#p3e21b20e7e)" d="
M18 280.899
L18.62 281.001
L19.24 280.673
L20.48 279.278
L21.72 277.93
L22.34 277.547
L22.96 277.395
L24.2 277.572
L24.82 277.724
L25.44 277.694
L26.06 277.817
L26.68 277.73
L27.3 277.446
L29.16 276.166
L31.02 277.133
L31.64 277.559
L32.26 277.203
L32.88 277.226
L33.5 277.048
L34.12 276.573
L35.36 275.101
L35.98 274.19
L36.6 273.939
L37.22 274.271
L37.84 275.236
L39.7 279.577
L40.32 280.765
L40.94 281.224
L41.56 280.754
L42.18 279.411
L43.42 274.459
L44.04 271.995
L44.66 270.157
L45.28 269.276
L45.9 269.488
L46.52 270.709
L47.76 274.964
L48.38 277.181
L49 278.949
L49.62 280.026
L50.24 280.329
L50.86 279.926
L51.48 279
L53.34 275.429
L53.96 274.634
L54.58 274.053
L55.2 273.811
L55.82 273.892
L56.44 274.254
L60.78 279.614
L61.4 279.969
L62.02 279.989
L62.64 279.627
L63.26 278.888
L64.5 276.609
L65.74 274.331
L66.36 273.651
L66.98 273.448
L67.6 273.743
L68.22 274.453
L70.08 277.118
L70.7 277.48
L71.32 277.386
L71.94 276.894
L73.18 275.455
L73.8 274.977
L74.42 274.91
L75.04 275.3
L76.28 276.992
L76.9 277.834
L77.52 278.345
L78.14 278.377
L78.76 277.914
L80.62 275.335
L81.24 275.822
L81.86 275.724
L82.48 275.985
L83.72 277.06
L84.34 277.587
L84.96 277.654
L85.58 277.196
L86.2 276.302
L87.44 274.131
L88.06 273.389
L88.68 273.131
L89.3 273.395
L89.92 274.086
L91.78 276.796
L92.4 277.37
L93.02 277.709
L94.26 278.033
L96.12 278.384
L96.74 278.337
L97.36 278.046
L97.98 277.475
L98.6 277.236
L99.84 275.442
L100.46 274.875
L101.08 274.783
L101.7 275.224
L102.32 276.111
L103.56 278.271
L104.18 278.958
L104.8 279.088
L105.42 278.608
L106.04 277.63
L107.28 275.389
L107.9 274.352
L108.52 273.821
L109.14 273.856
L110.38 275.613
L111 276.338
L111.62 276.772
L112.24 276.796
L112.86 276.409
L113.48 276.296
L115.34 273.445
L115.96 273.018
L116.58 272.98
L117.2 273.99
L118.44 275.54
L119.06 276.419
L119.68 276.12
L120.92 279.232
L121.54 280.304
L121.54 280.304" style="fill:none;stroke:#000000;stroke-linecap:square;stroke-width:2;"/>
   </g>
  </g>
  <g id="axes_12">
   <g id="line2d_12">
    <path clip-path="url(#paf23cbe904)" d="
M18 303.208
L18.62 302.708
L19.24 301.72
L20.48 299.242
L21.1 298.263
L21.72 297.714
L22.34 297.667
L22.96 298.089
L23.58 298.861
L24.82 300.788
L25.44 301.379
L26.06 302.124
L26.68 302.668
L27.3 303.039
L27.92 303.272
L28.54 303.384
L29.16 302.438
L29.78 302.483
L30.4 301.894
L31.02 301.009
L32.88 297.728
L33.5 296.955
L34.12 296.622
L34.74 296.824
L35.36 297.549
L37.22 300.688
L37.84 301.315
L38.46 301.422
L39.08 300.943
L39.7 299.968
L40.94 297.224
L41.56 296.198
L42.18 295.763
L42.8 295.93
L43.42 296.771
L44.66 299.757
L45.28 301.323
L45.9 302.534
L46.52 303.168
L47.14 303.128
L47.76 302.448
L48.38 301.281
L50.24 297.183
L50.86 296.347
L51.48 295.994
L52.1 296.144
L52.72 296.748
L53.34 297.71
L54.58 300.457
L55.82 302.657
L56.44 303.339
L57.06 303.695
L57.68 303.643
L58.3 303.136
L58.92 302.213
L60.16 299.552
L61.4 296.922
L62.02 296.084
L62.64 295.766
L63.26 296.043
L63.88 296.911
L64.5 298.271
L66.36 303.153
L66.98 304.151
L67.6 304.457
L68.22 303.985
L68.84 302.79
L70.08 299.104
L70.7 297.26
L71.32 295.849
L71.94 295.092
L72.56 295.064
L73.18 295.682
L75.66 299.732
L76.28 300.068
L76.9 300.058
L78.14 299.646
L78.76 299.591
L79.38 299.77
L80.62 300.658
L81.24 300.773
L81.86 301.154
L82.48 301.335
L83.1 301.274
L84.34 300.199
L84.96 299.792
L85.58 299.547
L86.2 299.484
L87.44 299.702
L88.68 299.894
L90.54 299.915
L91.78 300.227
L93.02 300.637
L93.64 300.659
L94.26 300.452
L94.88 299.337
L96.12 297.762
L96.74 297.2
L97.36 296.973
L97.98 297.122
L98.6 297.741
L100.46 298.989
L101.08 299.177
L101.7 299.113
L102.94 298.436
L103.56 298.092
L104.18 297.961
L104.8 298.158
L105.42 298.724
L107.9 302.24
L108.52 302.697
L109.14 302.611
L109.76 301.778
L111 299.371
L111.62 298.186
L112.24 297.36
L113.48 296.876
L114.1 297.499
L114.72 298.458
L115.96 300.74
L116.58 301.413
L117.2 303.284
L117.82 302.351
L118.44 301.155
L119.06 299.643
L119.68 299.462
L120.92 302.321
L121.54 303.084
L121.54 303.084" style="fill:none;stroke:#000000;stroke-linecap:square;stroke-width:2;"/>
   </g>
  </g>
  <g id="axes_13">
   <g id="line2d_13">
    <path clip-path="url(#p423fd2dc85)" d="
M18 326.284
L18.62 325.509
L19.86 322.599
L20.48 321.098
L21.1 320.008
L21.72 319.563
L22.34 319.859
L22.96 320.832
L25.44 326.613
L26.06 327.174
L26.68 327.124
L27.3 326.605
L28.54 325.091
L29.16 324.079
L30.4 323.563
L32.26 322.899
L33.5 321.706
L34.12 321.194
L34.74 320.865
L35.36 320.846
L35.98 321.148
L36.6 321.658
L37.84 323.048
L38.46 323.495
L39.08 323.525
L39.7 323.276
L40.32 322.426
L42.18 319.39
L42.8 319.276
L43.42 319.814
L44.04 320.93
L45.9 325.258
L46.52 326.078
L47.14 326.297
L47.76 325.939
L48.38 325.149
L50.24 322.339
L50.86 321.812
L51.48 321.578
L52.1 321.584
L53.34 321.999
L53.96 322.611
L55.82 323.723
L57.68 325.244
L58.3 325.402
L58.92 325.161
L59.54 324.469
L60.16 323.375
L62.02 319.542
L62.64 318.917
L63.26 318.953
L63.88 319.694
L64.5 321.049
L66.36 326.26
L66.98 327.34
L67.6 327.691
L68.22 327.243
L68.84 326.074
L70.08 322.479
L70.7 320.671
L71.32 319.254
L71.94 318.432
L72.56 318.289
L73.18 318.778
L73.8 319.744
L75.66 323.238
L76.28 323.962
L76.9 324.327
L77.52 324.375
L78.76 323.92
L80 323.417
L80.62 323.291
L81.24 322.874
L81.86 322.827
L83.1 323.036
L83.72 323.356
L84.96 323.318
L86.2 323.078
L87.44 322.569
L88.68 322.032
L89.3 321.928
L89.92 322.024
L90.54 322.343
L93.02 324.318
L93.64 324.362
L94.26 324.076
L94.88 322.945
L96.12 321.378
L96.74 320.906
L97.36 320.828
L97.98 321.16
L98.6 322.341
L99.84 323.429
L100.46 323.66
L101.08 323.533
L101.7 323.062
L103.56 321.041
L104.18 320.803
L104.8 320.985
L105.42 321.565
L107.28 323.958
L107.9 324.462
L108.52 324.547
L109.14 324.167
L111 321.531
L111.62 320.978
L112.24 320.871
L113.48 321.706
L114.72 323.913
L115.34 325.629
L115.96 326.454
L116.58 326.76
L117.2 327.298
L119.06 322.835
L119.68 322.728
L120.3 324.357
L120.92 325.649
L121.54 326.338
L121.54 326.338" style="fill:none;stroke:#000000;stroke-linecap:square;stroke-width:2;"/>
   </g>
  </g>
  <g id="axes_14">
   <g id="line2d_14">
    <path clip-path="url(#p8d16893679)" d="
M18 350.924
L18.62 350.362
L20.48 347.086
L21.1 346.493
L21.72 346.411
L22.34 346.766
L23.58 347.987
L24.2 348.409
L24.82 348.515
L27.92 346.317
L28.54 346.185
L29.16 345.856
L30.4 345.522
L31.64 344.776
L32.26 344.252
L33.5 343.938
L34.12 344.116
L34.74 344.618
L35.36 345.367
L35.98 346.438
L36.6 347.074
L37.22 347.425
L37.84 347.42
L38.46 347.07
L39.08 346.472
L39.7 345.539
L40.32 344.924
L40.94 344.512
L41.56 344.382
L42.8 345.203
L44.66 346.958
L45.28 347.334
L45.9 347.511
L46.52 347.501
L47.76 347.109
L52.72 344.983
L53.34 344.846
L54.58 345.383
L55.82 346.388
L57.68 348.104
L58.3 348.303
L58.92 348.143
L59.54 347.629
L60.78 345.913
L61.4 345.018
L62.02 344.319
L62.64 343.943
L63.26 343.948
L63.88 344.316
L65.12 345.725
L65.74 346.463
L66.36 347.027
L66.98 347.32
L67.6 347.312
L68.22 347.04
L70.08 345.679
L70.7 345.412
L71.32 345.338
L72.56 345.643
L73.8 346.001
L74.42 346.008
L75.66 345.648
L76.9 345.27
L77.52 345.305
L78.14 345.555
L79.38 346.558
L80.62 347.515
L81.86 347.397
L82.48 347.061
L84.96 344.98
L85.58 344.898
L86.2 345.081
L88.68 346.606
L89.3 346.684
L89.92 346.571
L92.4 345.639
L93.02 345.645
L94.26 345.98
L94.88 345.882
L96.12 346.186
L97.36 346.058
L99.22 345.672
L100.46 345.917
L102.32 346.534
L103.56 346.537
L106.66 345.965
L108.52 345.974
L109.14 345.897
L109.76 345.974
L111 345.739
L111.62 345.74
L112.24 345.92
L113.48 346.702
L114.72 348.028
L115.34 347.963
L115.96 348.264
L116.58 348.311
L117.2 348.846
L117.82 348.459
L119.06 345.975
L119.68 345.879
L120.3 348.007
L120.92 349.728
L121.54 350.741
L121.54 350.741" style="fill:none;stroke:#000000;stroke-linecap:square;stroke-width:2;"/>
   </g>
  </g>
  <g id="axes_15">
   <g id="line2d_15">
    <path clip-path="url(#pdcf92b45fb)" d="
M18 374.158
L18.62 373.801
L19.24 372.942
L20.48 370.816
L21.1 370.058
L21.72 369.698
L22.34 369.734
L22.96 370.061
L24.2 370.923
L24.82 371.157
L25.44 371.107
L26.06 370.848
L28.54 369.286
L29.78 368.839
L32.88 368.137
L33.5 368.144
L34.12 368.284
L35.36 368.924
L35.98 369.46
L36.6 369.725
L37.22 369.827
L37.84 369.739
L39.08 369.105
L39.7 368.557
L40.32 368.264
L40.94 368.126
L41.56 368.178
L42.8 368.942
L44.04 369.863
L44.66 370.213
L45.28 370.411
L45.9 370.449
L47.14 370.175
L49 369.687
L50.86 369.424
L52.1 368.98
L53.34 368.348
L54.58 368.222
L55.2 368.32
L55.82 368.599
L57.06 369.567
L58.3 370.5
L58.92 370.663
L59.54 370.564
L60.16 370.227
L62.02 368.706
L62.64 368.396
L63.26 368.311
L63.88 368.457
L65.12 369.233
L66.36 370.063
L66.98 370.3
L67.6 370.369
L68.22 370.28
L69.46 369.797
L71.32 369.064
L72.56 368.836
L75.04 368.636
L76.28 368.683
L77.52 369.004
L80 370.071
L80.62 370.19
L81.86 369.958
L83.72 369.102
L84.96 368.55
L85.58 368.418
L86.82 368.485
L88.68 369.084
L89.92 369.45
L91.16 369.597
L92.4 369.523
L94.26 369.263
L94.88 368.998
L96.12 369.136
L97.98 369.592
L98.6 369.838
L99.84 369.969
L101.08 369.8
L104.18 368.94
L105.42 368.985
L107.9 369.31
L111 368.893
L111.62 368.951
L112.24 369.137
L115.34 370.713
L115.96 370.834
L116.58 370.79
L117.2 370.935
L119.06 369.269
L119.68 369.115
L120.92 372.777
L121.54 373.831
L121.54 373.831" style="fill:none;stroke:#000000;stroke-linecap:square;stroke-width:2;"/>
   </g>
  </g>
  <g id="axes_16">
   <g id="line2d_16">
    <path clip-path="url(#p37ff8ca1e4)" d="
M18 397.392
L18.62 396.743
L21.1 392.111
L21.72 391.886
L22.34 392.203
L23.58 393.733
L24.2 394.468
L24.82 394.928
L25.44 394.649
L26.06 394.535
L27.92 393.716
L28.54 393.581
L29.16 392.953
L29.78 392.925
L30.4 392.762
L31.64 392.083
L32.88 391.23
L33.5 390.977
L34.12 391.008
L34.74 391.36
L35.36 391.984
L35.98 392.899
L36.6 393.465
L37.22 393.788
L37.84 393.761
L38.46 393.357
L39.08 392.64
L40.32 390.701
L40.94 390.055
L41.56 389.762
L42.18 390.079
L42.8 390.619
L44.04 392.451
L45.28 394.176
L45.9 394.645
L46.52 394.767
L47.14 394.563
L47.76 394.101
L50.86 391.14
L51.48 390.866
L52.1 390.765
L52.72 390.849
L53.34 391.125
L54.58 392.541
L57.06 395.2
L57.68 395.525
L58.3 395.485
L58.92 395.047
L59.54 394.241
L62.02 390.008
L62.64 389.567
L63.26 389.619
L63.88 390.158
L64.5 391.089
L66.36 394.377
L66.98 394.976
L67.6 395.116
L68.22 394.795
L68.84 394.105
L70.7 391.473
L71.32 390.941
L71.94 390.716
L72.56 390.769
L73.8 391.345
L75.04 391.872
L76.28 392.052
L77.52 392.251
L78.76 392.85
L80 393.627
L80.62 393.872
L82.48 393.318
L84.34 392.058
L84.96 391.867
L85.58 391.887
L86.82 392.413
L88.06 393.045
L88.68 393.211
L89.3 393.238
L90.54 392.988
L91.78 392.68
L93.64 392.533
L94.26 392.477
L94.88 391.936
L96.74 391.494
L97.36 391.45
L97.98 391.526
L99.22 391.998
L101.08 392.973
L101.7 393.071
L102.32 392.982
L103.56 392.407
L104.18 392.104
L104.8 391.927
L105.42 391.944
L106.04 392.167
L107.28 392.794
L107.9 393.145
L108.52 393.344
L109.14 393.322
L109.76 393.153
L111.62 391.717
L112.24 391.518
L113.48 391.708
L114.72 392.898
L115.34 392.93
L115.96 393.349
L116.58 393.58
L117.2 394.478
L117.82 394.391
L119.06 392.541
L119.68 392.332
L120.3 394.49
L120.92 396.233
L121.54 397.245
L121.54 397.245" style="fill:none;stroke:#000000;stroke-linecap:square;stroke-width:2;"/>
   </g>
  </g>
  <g id="axes_17">
   <g id="line2d_17">
    <path clip-path="url(#pfa29b29c2d)" d="
M18 420.625
L18.62 420.127
L19.24 419.082
L20.48 416.571
L21.1 415.697
L21.72 415.32
L22.34 415.456
L22.96 415.993
L24.2 417.452
L24.82 417.962
L25.44 418.103
L26.06 417.941
L26.68 417.504
L28.54 415.878
L29.16 415.451
L30.4 415.257
L34.74 415.237
L35.36 415.428
L35.98 415.737
L37.22 415.992
L37.84 415.948
L38.46 415.755
L39.08 415.43
L39.7 414.909
L40.94 414.296
L41.56 414.195
L42.18 414.343
L42.8 414.674
L44.04 415.776
L45.28 416.855
L45.9 417.178
L46.52 417.305
L47.14 417.246
L48.38 416.752
L50.24 415.846
L52.1 415.166
L53.34 414.845
L53.96 415.058
L54.58 415.115
L55.2 415.298
L56.44 416.046
L57.68 417.101
L58.3 417.379
L58.92 417.382
L59.54 417.076
L60.16 416.496
L62.02 414.247
L62.64 413.819
L63.26 413.738
L63.88 414.025
L64.5 414.631
L66.36 417.082
L66.98 417.634
L67.6 417.888
L68.22 417.828
L68.84 417.493
L70.08 416.337
L71.32 415.177
L71.94 414.772
L72.56 414.52
L73.18 414.417
L74.42 414.574
L75.66 415.048
L78.76 416.485
L80 416.649
L80.62 416.574
L82.48 415.776
L83.1 415.537
L86.2 415.143
L88.06 415.412
L91.78 416.283
L93.02 416.215
L94.26 415.875
L94.88 415.337
L96.12 415.153
L96.74 415.224
L97.98 415.687
L98.6 416.147
L99.84 416.524
L100.46 416.518
L101.08 416.351
L102.32 415.66
L103.56 414.979
L104.18 414.841
L104.8 414.892
L105.42 415.12
L107.28 416.108
L107.9 416.274
L108.52 416.257
L109.76 415.814
L111 415.181
L111.62 415.052
L112.24 415.129
L113.48 415.688
L115.34 417.148
L115.96 417.358
L116.58 417.362
L117.2 417.602
L119.06 415.764
L119.68 415.588
L120.92 419.34
L121.54 420.377
L121.54 420.377" style="fill:none;stroke:#000000;stroke-linecap:square;stroke-width:2;"/>
   </g>
  </g>
  <g id="axes_18">
   <g id="line2d_18">
    <path clip-path="url(#p5a2f587196)" d="
M18 443.859
L18.62 443.241
L19.24 442.028
L20.48 439.145
L21.1 438.132
L21.72 437.689
L22.34 437.85
L22.96 438.501
L24.82 441.148
L25.44 441.189
L26.06 441.435
L26.68 441.417
L28.54 440.769
L29.16 439.625
L29.78 439.755
L31.02 439.448
L32.26 438.844
L32.88 438.429
L33.5 438.176
L34.12 438.143
L34.74 438.395
L35.36 438.919
L35.98 439.759
L36.6 440.238
L37.22 440.506
L37.84 440.423
L38.46 439.916
L39.08 439.008
L40.32 436.361
L40.94 435.338
L41.56 434.766
L42.18 434.814
L42.8 435.362
L43.42 436.463
L45.9 442.102
L46.52 442.65
L47.14 442.584
L47.76 441.939
L48.38 440.837
L50.24 436.748
L50.86 435.792
L51.48 435.285
L52.1 435.284
L52.72 435.781
L53.34 436.706
L54.58 439.685
L55.82 441.994
L57.06 443.43
L57.68 443.477
L58.3 443.034
L58.92 442.143
L60.16 439.436
L61.4 436.612
L62.02 435.637
L62.64 435.176
L63.26 435.323
L63.88 436.084
L64.5 437.37
L66.36 442.176
L66.98 443.18
L67.6 443.51
L68.22 443.09
L68.84 441.983
L70.08 438.553
L70.7 436.829
L71.32 435.491
L71.94 434.732
L72.56 434.625
L73.18 435.109
L74.42 437.12
L75.66 439.049
L76.28 439.596
L76.9 439.824
L77.52 439.805
L79.38 439.402
L80 439.437
L80.62 439.589
L81.24 439.531
L82.48 440.252
L83.1 440.484
L87.44 438.851
L88.06 438.781
L88.68 438.837
L89.92 439.302
L91.16 439.944
L91.78 440.14
L92.4 440.145
L93.02 439.907
L93.64 439.423
L94.26 438.746
L94.88 437.32
L95.5 436.591
L96.12 436.13
L96.74 436.046
L97.36 436.373
L97.98 437.057
L99.22 438.865
L99.84 439.61
L100.46 440.082
L101.08 440.167
L101.7 439.839
L102.32 439.167
L103.56 437.461
L104.18 436.84
L104.8 436.606
L105.42 436.842
L106.04 437.522
L106.66 438.52
L107.28 439.248
L107.9 440.257
L108.52 441.011
L109.14 441.352
L109.76 441.269
L110.38 440.591
L112.24 438.029
L113.48 437.419
L114.1 437.784
L115.96 439.599
L116.58 440.046
L117.2 441.295
L117.82 441.041
L118.44 440.168
L119.06 439.071
L119.68 438.803
L120.92 442.647
L121.54 443.675
L121.54 443.675" style="fill:none;stroke:#000000;stroke-linecap:square;stroke-width:2;"/>
   </g>
  </g>
  <g id="axes_19">
   <g id="line2d_19">
    <path clip-path="url(#p0259813f7b)" d="
M18 467.092
L18.62 466.426
L19.24 465.152
L20.48 462.154
L21.1 461.134
L21.72 460.75
L22.34 461.047
L22.96 461.906
L24.2 464.278
L24.82 465.201
L25.44 465.689
L26.06 465.639
L26.68 465.075
L29.16 461.432
L29.78 461.28
L30.4 461.332
L31.64 461.852
L32.26 462.214
L34.12 462.177
L35.36 462.067
L37.84 462.474
L38.46 462.429
L39.08 462.186
L42.18 459.533
L42.8 459.564
L43.42 459.996
L44.04 460.785
L45.9 463.867
L46.52 464.543
L47.14 464.83
L47.76 464.702
L48.38 464.216
L50.86 461.256
L51.48 460.865
L52.1 460.726
L52.72 460.824
L53.34 461.12
L53.96 461.912
L57.06 464.364
L57.68 464.62
L58.3 464.604
L58.92 464.264
L59.54 463.592
L60.78 461.531
L62.02 459.515
L62.64 458.976
L63.26 458.931
L63.88 459.422
L64.5 460.393
L66.98 465.401
L67.6 465.883
L68.22 465.804
L68.84 465.19
L69.46 464.156
L71.32 460.424
L71.94 459.597
L72.56 459.184
L73.18 459.208
L73.8 459.623
L75.04 461.194
L76.28 462.849
L76.9 463.416
L77.52 463.726
L78.14 463.775
L78.76 463.603
L80.62 462.547
L81.24 462.028
L81.86 461.911
L82.48 461.97
L84.34 462.422
L84.96 462.382
L86.2 461.933
L87.44 461.307
L88.06 461.146
L88.68 461.192
L89.3 461.477
L90.54 462.597
L91.78 463.699
L92.4 463.923
L93.02 463.827
L93.64 463.423
L94.26 462.797
L94.88 461.593
L95.5 460.943
L96.12 460.545
L96.74 460.492
L97.36 460.794
L97.98 461.374
L98.6 462.425
L99.22 462.995
L99.84 463.343
L100.46 463.361
L101.08 463.025
L102.32 461.614
L102.94 460.854
L103.56 460.292
L104.18 460.06
L104.8 460.21
L105.42 460.708
L107.28 462.792
L107.9 463.268
L108.52 463.458
L109.14 463.336
L109.76 462.956
L111 461.935
L111.62 461.623
L112.24 461.578
L113.48 462.108
L114.72 463.264
L115.34 464.405
L115.96 464.735
L116.58 464.766
L117.2 464.969
L117.82 463.906
L119.06 462.25
L119.68 462.066
L120.3 464.192
L120.92 465.919
L121.54 466.936
L121.54 466.936" style="fill:none;stroke:#000000;stroke-linecap:square;stroke-width:2;"/>
   </g>
  </g>
  <g id="axes_20">
   <g id="line2d_20">
    <path clip-path="url(#p1887ef8d34)" d="
M18 488.887
L18.62 488.62
L19.24 487.932
L21.1 485.152
L21.72 484.612
L22.34 484.449
L22.96 484.648
L24.2 485.704
L25.44 486.682
L26.06 487.028
L26.68 487.143
L27.3 487.059
L28.54 486.578
L29.16 485.362
L29.78 485.665
L34.74 485.996
L35.36 486.202
L35.98 486.674
L37.22 486.811
L37.84 486.639
L38.46 486.218
L39.08 485.533
L40.94 482.599
L41.56 482.021
L42.18 481.638
L42.8 481.838
L43.42 482.58
L44.04 483.795
L45.9 488.328
L46.52 489.296
L47.14 489.63
L47.76 489.244
L48.38 488.174
L49.62 484.702
L50.24 482.867
L50.86 481.38
L51.48 480.495
L52.1 480.365
L52.72 481.01
L53.34 482.316
L55.2 487.855
L55.82 489.128
L56.44 489.833
L57.06 490.104
L57.68 489.699
L58.3 488.823
L60.78 484.033
L61.4 483.273
L62.02 482.885
L62.64 482.91
L63.26 483.361
L63.88 484.215
L65.12 486.791
L66.36 489.415
L66.98 490.188
L67.6 490.326
L68.22 489.715
L68.84 488.367
L70.08 484.208
L70.7 482.05
L71.32 480.338
L71.94 479.378
L72.56 479.331
L73.18 480.18
L73.8 481.722
L75.04 485.467
L75.66 486.905
L76.28 487.681
L76.9 487.713
L77.52 487.102
L79.38 484.241
L80 483.959
L80.62 484.296
L81.24 484.918
L83.1 489.408
L83.72 489.485
L84.34 489.441
L84.96 488.75
L85.58 487.553
L86.82 484.686
L87.44 483.609
L88.06 483.081
L88.68 483.187
L89.3 483.872
L91.16 487.097
L91.78 487.61
L92.4 487.51
L93.02 486.796
L94.26 484.236
L94.88 482.347
L95.5 481.462
L96.12 481.275
L96.74 481.829
L97.36 482.993
L98.6 486.072
L99.22 487.168
L99.84 487.753
L100.46 487.712
L101.08 487.067
L101.7 485.964
L102.94 483.331
L103.56 482.3
L104.18 481.715
L104.8 481.664
L105.42 482.145
L106.04 483.075
L107.9 486.588
L108.52 487.635
L109.76 488.886
L110.38 488.661
L111 488.086
L112.24 486.566
L112.86 486.014
L113.48 485.696
L114.1 485.708
L114.72 486.029
L115.34 487.138
L115.96 487.663
L116.58 487.963
L117.2 488.725
L119.06 485.48
L119.68 485.356
L120.92 487.892
L121.54 488.643
L121.54 488.643" style="fill:none;stroke:#000000;stroke-linecap:square;stroke-width:2;"/>
   </g>
  </g>
  <g id="text_1">
   <!-- 4 -->
   <defs>
    <path d="
M37.7969 64.3125
L12.8906 25.3906
L37.7969 25.3906
z

M35.2031 72.9062
L47.6094 72.9062
L47.6094 25.3906
L58.0156 25.3906
L58.0156 17.1875
L47.6094 17.1875
L47.6094 0
L37.7969 0
L37.7969 17.1875
L4.89062 17.1875
L4.89062 26.7031
z
" id="DejaVuSans-34"/>
   </defs>
   <g transform="translate(68.8125 20.638125)scale(0.12 -0.12)">
    <use xlink:href="#DejaVuSans-34"/>
   </g>
  </g>
 </g>
 <defs>
  <clipPath id="pd4186d8de6">
   <rect height="19.3613445378" width="111.6" x="18.0" y="499.038655462"/>
  </clipPath>
  <clipPath id="p0b4ac3770c">
   <rect height="19.3613445378" width="111.6" x="18.0" y="220.235294118"/>
  </clipPath>
  <clipPath id="pfa29b29c2d">
   <rect height="19.3613445378" width="111.6" x="18.0" y="406.104201681"/>
  </clipPath>
  <clipPath id="paf23cbe904">
   <rect height="19.3613445378" width="111.6" x="18.0" y="289.936134454"/>
  </clipPath>
  <clipPath id="p423fd2dc85">
   <rect height="19.3613445378" width="111.6" x="18.0" y="313.169747899"/>
  </clipPath>
  <clipPath id="p2a88bd9f82">
   <rect height="19.3613445378" width="111.6" x="18.0" y="243.468907563"/>
  </clipPath>
  <clipPath id="pba91d7df7c">
   <rect height="19.3613445378" width="111.6" x="18.0" y="57.6"/>
  </clipPath>
  <clipPath id="p25c16377a7">
   <rect height="19.3613445378" width="111.6" x="18.0" y="173.768067227"/>
  </clipPath>
  <clipPath id="p0fe9a44d96">
   <rect height="19.3613445378" width="111.6" x="18.0" y="104.067226891"/>
  </clipPath>
  <clipPath id="pbea2d715e4">
   <rect height="19.3613445378" width="111.6" x="18.0" y="197.001680672"/>
  </clipPath>
  <clipPath id="pdcf92b45fb">
   <rect height="19.3613445378" width="111.6" x="18.0" y="359.63697479"/>
  </clipPath>
  <clipPath id="p0259813f7b">
   <rect height="19.3613445378" width="111.6" x="18.0" y="452.571428571"/>
  </clipPath>
  <clipPath id="p053b0300e8">
   <rect height="19.3613445378" width="111.6" x="18.0" y="150.534453782"/>
  </clipPath>
  <clipPath id="p1887ef8d34">
   <rect height="19.3613445378" width="111.6" x="18.0" y="475.805042017"/>
  </clipPath>
  <clipPath id="pdffdb5c0e8">
   <rect height="19.3613445378" width="111.6" x="18.0" y="80.8336134454"/>
  </clipPath>
  <clipPath id="p37ff8ca1e4">
   <rect height="19.3613445378" width="111.6" x="18.0" y="382.870588235"/>
  </clipPath>
  <clipPath id="p3e21b20e7e">
   <rect height="19.3613445378" width="111.6" x="18.0" y="266.702521008"/>
  </clipPath>
  <clipPath id="p8d16893679">
   <rect height="19.3613445378" width="111.6" x="18.0" y="336.403361345"/>
  </clipPath>
  <clipPath id="p5a2f587196">
   <rect height="19.3613445378" width="111.6" x="18.0" y="429.337815126"/>
  </clipPath>
  <clipPath id="pcd4454e43c">
   <rect height="19.3613445378" width="111.6" x="18.0" y="127.300840336"/>
  </clipPath>
 </defs>
</svg>
